<?xml version="1.0" encoding="utf-8"?>
<!-- Generator: Adobe Illustrator 28.2.0, SVG Export Plug-In . SVG Version: 6.00 Build 0)  -->
<svg version="1.1" id="Calque_1" xmlns="http://www.w3.org/2000/svg" xmlns:xlink="http://www.w3.org/1999/xlink" x="0px" y="0px"
	 viewBox="0 0 1522 1534.08" style="enable-background:new 0 0 1522 1534.08;" xml:space="preserve">
<style type="text/css">
	.st0{fill:#010101;}
	.st1{fill:#F12006;}
	.st2{fill:#F37909;}
	.st3{fill:#F37908;}
	.st4{fill:#08C1F2;}
	.st5{fill:#053FEE;}
	.st6{fill:#053FEF;}
	.st7{fill:#F7F7F7;}
	.st8{fill:#F5B30A;}
	.st9{fill:#2CE813;}
	.st10{fill:#97F694;}
	.st11{fill:#09970C;}
	.st12{fill:#F26096;}
	.st13{fill:#0AC0F1;}
	.st14{fill:#EE6298;}
</style>
<g>
	<path class="st0" d="M797,1524c-24.67,0-49.33,0-74,0c-0.83-0.33-1.64-0.92-2.48-0.96c-29.9-1.38-59.54-4.92-89.04-9.91
		c-44.76-7.58-88.47-19.06-131.04-34.77c-138.45-51.1-252.83-135.16-343.13-251.8c-57.38-74.12-99.17-156.39-126.05-246.17
		c-9.82-32.81-17.69-66.12-22.25-100.09c-2.78-20.72-4.74-41.55-7.06-62.33C1.29,811.99,0.65,805.99,0,800c0-25,0-50,0-75
		c0.33-0.83,0.92-1.64,0.96-2.48c1.39-29.9,4.92-59.53,9.91-89.04c7.57-44.76,19.06-88.47,34.76-131.04
		C96.74,364,180.8,249.61,297.44,159.32c74.12-57.38,156.39-99.17,246.17-126.05c32.8-9.82,66.11-17.7,100.09-22.25
		c20.72-2.77,41.55-4.74,62.33-7.06C712.02,3.29,718.01,2.65,724,2c24,0,48,0,72,0c1.02,0.31,2.01,0.8,3.05,0.9
		c26.42,2.7,52.93,4.71,79.25,8.18c39.9,5.27,78.88,15,117.1,27.56c142.86,46.93,261.87,128.75,356.92,245.21
		c59.51,72.92,103.59,154.35,132.78,243.86c12.22,37.47,21.58,75.65,27.55,114.57c3.32,21.63,4.98,43.52,7.38,65.3
		c0.68,6.14,1.32,12.28,1.98,18.42c0,24.67,0,49.33,0,74c-0.33,0.84-0.92,1.68-0.95,2.53c-1.28,30.24-4.9,60.2-9.94,90.04
		c-8.03,47.56-20.53,93.9-37.68,138.94c-46.89,123.09-120.58,227.32-220.95,312.63c-66.19,56.26-140.02,99.72-221.14,130.66
		c-51.74,19.73-105,34-159.97,41.16c-23.7,3.08-47.58,4.74-71.37,7.09C798.97,1523.16,798,1523.68,797,1524z M1060.75,1355.18
		c6.19,6.03,12.33,12.11,18.62,18.04c0.88,0.83,2.85,1.56,3.72,1.14c3.29-1.61,6.33-3.72,8.91-5.31
		c-7.27-7.67-13.8-14.97-20.86-21.72c-1.69-1.61-5.15-1.38-7.8-1.99c2.32-14.17,4.15-28.51-0.82-42.34
		c-5.81-16.18-12.65-31.99-18.99-47.99c-0.15-0.39,0.34-1.04,0.54-1.56c1.61-1.5,4.03-2.72,4.68-4.56
		c2.51-7.13,7.81-10.69,14.38-13.53c9.61-4.16,19.12-8.62,28.33-13.59c4.9-2.65,9.95-5.95,13.41-10.19
		c12.56-15.42,21.98-32.51,24.3-52.76c1.19-10.36,4.66-19.71,12.08-27.34c7.08-7.28,13.64-15.18,21.32-21.75
		c6.35-5.42,13.75-9.79,21.15-13.75c10.1-5.41,21.2-9.09,30.86-15.14c17.74-11.11,32.91-25.39,36.94-46.94
		c3.76-20.13,12.12-38.31,20.07-56.77c1.32-3.06,3.49-6.59,6.25-8c5.18-2.64,6.89-5.85,5.03-11.18
		c4.55-11.39,9.98-22.52,13.46-34.23c5.14-17.32,7.1-35.28,5.27-53.36c-1.15-11.33,1.56-20.87,9.37-29.32
		c9.75-10.55,12.77-23.52,11.5-37.53c-1.11-12.27-0.12-24.24,3.63-35.99c5.76-18.08,7.21-36.5,4-55.22
		c-2.07-12.07-1.52-23.72,3.31-35.24c4.43-10.57,8.07-21.48,11.93-32.28c7.17-20.04,12.18-40.39,10.64-62.01
		c-1.04-14.66-5.31-27.79-15.62-38.45c-8.29-8.57-12.84-18.92-15.43-30.29c-4.06-17.82-7.63-35.76-12.03-53.5
		c-4.57-18.44-16.14-30.22-35.13-34.05c-4.07-0.82-8.18-1.51-12.23-2.44c-1.14-0.26-2.13-1.16-3.19-1.76
		c-0.06-1.17-0.11-2.35-0.17-3.52l0.15-0.3c0,0-0.3-0.2-0.3-0.2c-4.39-11.85-8.47-23.82-13.25-35.51c-4-9.77-9.19-19.31-17.83-25.56
		c-12.02-8.69-20.17-19.91-26.63-32.97c-5.94-12.02-15.9-19.98-28.6-24.28c-12.13-4.11-24.26-8.29-36.54-11.91
		c-10.36-3.05-17.23-9.03-19.56-19.78c-0.53-2.44-0.97-4.91-1.72-7.29c-2.5-7.91-4.46-16.07-7.85-23.58
		c-4.08-9.02-11.6-14.8-21.69-15.61c-9.77-0.78-19.62-0.86-29.42-0.65c-18.92,0.4-35.64-4.15-49.54-18.03
		c-7.78-7.77-16.98-14.14-25.54-21.13c-1.34-2.43-2.1-6.15-4.12-7.06c-11.23-5.04-22.69-10.25-35.3-9.73
		c-11.6,0.47-23.18,1.94-34.71,3.46c-21.89,2.87-39.41-2.62-51.62-22.7c-13.94-22.93-28.06-26.09-52.33-14.63
		c-19.1,9.03-38.58,17.26-57.83,25.97c-12.69,5.74-25.91,7.67-39.48,4.85c-8.75-1.82-17.4-4.41-25.82-7.41
		c-10.09-3.6-20.1-7.2-31.01-6.58c-5.99,0.34-11.79,0.58-17.86,2.42c-18.65,5.65-33.18,16.57-45.31,31.3
		c-10.13,12.3-20.61,24.39-36.51,29.24c-24.66,7.52-44.6,22.81-64.57,38.13c-3.42,2.63-6.6,5.62-9.66,8.68
		c-11.81,11.81-16.85,26.03-15.03,42.69c1.97,18.12,7.27,35.18,16.55,50.86c3.25,5.49,7.25,6.74,10.65,4.74
		c3.41-2.01,3.05-5.23,0.61-11.54c-4.43-11.44-9-22.94-11.99-34.79c-3.6-14.23-2.76-28.59,8.07-39.9
		c16.23-16.97,34.52-31.47,56.62-40.1c15.41-6.01,31.1-11.24,42.79-23.75c5.57-5.96,11.02-12.05,16.26-18.3
		c17.05-20.38,46.38-33.14,77.77-18.8c20.91,9.55,43.35,12.47,65.74,4.78c13.66-4.69,26.91-10.65,40.13-16.54
		c10.33-4.6,20.19-10.27,30.5-14.93c12.05-5.45,17.92-3.68,25.8,6.89c2.98,4.01,5.7,8.21,8.68,12.22
		c9.72,13.07,22.34,21.71,38.86,22.53c9.71,0.48,19.72,0.06,29.24-1.78c18.85-3.66,37.06-2.68,55.05,3.82
		c1.07,2.45,1.51,5.63,3.33,7.22c11.87,10.37,23.7,20.85,36.27,30.33c5.66,4.27,12.75,8,19.62,9.01
		c13.93,2.03,28.17,2.81,42.26,2.67c15.38-0.16,20.78,2.78,25.02,17.66c1.82,6.39,3.03,12.96,4.63,19.42
		c3.61,14.58,12.37,24.35,26.86,28.93c11.58,3.66,23,7.87,34.64,11.31c12.33,3.65,20.9,11.28,26.47,22.65
		c1.76,3.59,3.34,7.35,5.68,10.53c3.92,5.31,7.53,11.46,12.77,15.08c18,12.42,25.99,31.04,33.4,50.25
		c-2.16-0.72-4.33-1.42-6.49-2.16c-3.88-1.32-8.03-2.16-11.57-4.09c-14.38-7.85-21.61-20.38-24.03-36.45
		c-1.97-13.12-8.51-23.79-21.71-28.2c-14.71-4.91-29.9-8.21-45.54-7.95c-7.13,0.12-14.25,1.21-21.37,1.92
		c-5.24,0.52-8.72-1.62-10.22-6.69c-1.13-3.82-2.5-7.64-3.05-11.56c-1.55-11.04-2.17-22.24-4.2-33.18
		c-3.3-17.8-22.51-28.94-39.76-23.77c-3.43,1.03-5.72,2.96-5.35,6.74c0.38,3.9,3.21,5.18,6.72,5.27c2.83,0.07,5.67-0.17,8.49,0
		c10.17,0.64,15.05,5.1,16.68,15.13c0.29,1.8,0.29,3.65,0.57,5.46c1.86,12.14,2.81,24.51,5.87,36.34
		c4.33,16.81,13.4,22.19,30.54,19.41c18.8-3.05,36.78,0.77,54.71,5.5c6.33,1.67,10.35,5.97,12.09,12.18
		c1.44,5.12,2.54,10.34,3.65,15.54c3.87,18.14,16.08,29.52,31.54,37.76c4.18,2.23,9.62,2.36,14.54,2.85
		c4.81,0.48,8.4-1.62,9.57-6.74c2.73,3.92,5.46,7.83,8.2,11.75c-0.03,7.63,0.73,8.66,8.19,10.64c2.25,0.59,4.55,1,6.84,1.41
		c13.37,2.38,24.83,7.39,28.37,22.14c3.76,15.69,7.6,31.38,10.54,47.23c3.22,17.35,8.32,33.57,20.91,46.62
		c5.32,5.51,9.06,12.09,10.2,19.68c2.23,14.79,2.39,29.69-2.2,44.03c-6.03,18.84-12.66,37.51-19.51,56.07
		c-4.31,11.68-6.29,23.38-3.94,35.71c3.04,15.92,3.42,31.94-1.42,47.47c-5.38,17.28-7.61,34.67-5.85,52.7
		c0.82,8.42-2.58,15.81-8.35,21.77c-10.65,10.99-13.77,23.96-12.73,38.96c1.65,23.74-1.59,46.79-12.21,68.53
		c-3.03,6.21-4.61,13.12-6.86,19.71c0,0-0.02,0.08-0.02,0.08c-0.15,0.33-0.3,0.66-0.44,0.99c-0.21,0.45-0.37,0.94-0.63,1.35
		c-12.07,19.1-21.74,39.32-25.76,61.66c-2.47,13.73-8.51,24.84-18.45,34.45c-10.94,10.57-24.38,16.64-37.98,22.49
		c-12.01,5.17-23.57,10.96-32.9,20.33c-7.62,7.67-15.13,15.47-22.39,23.48c-7.57,8.35-11.91,18.19-13.31,29.52
		c-0.79,6.38-2.3,12.82-4.55,18.84c-7.08,18.96-17.6,34.97-37.91,42.38c-7.62,2.78-14.98,6.43-22.17,10.22
		c-6.91,3.64-11.73,9.19-12.56,17.42c-3.54-0.61-7.23-2.01-10.05,1.66c-2.96,3.85-1.26,7.53,0.45,11.21c0.07,0.15,0.14,0.3,0.2,0.45
		c6.79,17.46,14.44,34.66,20.11,52.48c5.2,16.34,4.14,33.14-2.53,49.24c-1.37,3.3-1.53,6.37,1.78,8.31c3.42,2,6.49,0.71,8.59-2.44
		C1057.95,1360.45,1059.28,1357.77,1060.75,1355.18z M246.76,819.14c4.26,2.58,8.63,5.02,12.77,7.78
		c9.13,6.08,18.07,12.46,27.25,18.47c8.47,5.54,17.61,9.36,27.99,9.37c4.06,0,7.61-1.07,7.93-5.68c0.3-4.31-2.82-6.03-6.71-6.5
		c-0.5-0.06-1.02-0.05-1.48-0.21c-6.05-2.11-12.62-3.34-18.01-6.56c-10.4-6.22-20.12-13.57-30.14-20.42
		c-2.6-1.78-5.66-3.05-7.86-5.21c-6.28-6.14-8.95-6.2-14.25,0.46c-2.62,0.19-5.25,0.38-7.87,0.57c4.8-13.81,10.11-27.47,14.26-41.48
		c4.56-15.39,6.32-31.42,0.1-46.61c-4.04-9.86-10.63-18.69-16.17-27.93c-3.24-5.41-7.14-10.48-9.89-16.12
		c-3.8-7.8-3.18-15.82,0.97-23.51c4.09-7.57,10.42-12.88,17.54-17.38c12.52-7.91,25.49-15.21,37.48-23.85
		c21.59-15.55,44.3-28.91,68.85-39.22c17.79-7.47,34.14-17.23,47.59-31.44c17.3-18.28,27.02-40.42,31.7-64.62
		c5.39-27.89,19.18-50.01,41.45-67.28c11.19-8.67,22.12-17.67,33.14-26.55c1.42-1.14,3.38-2.27,3.84-3.78
		c0.69-2.25,1.24-5.61,0.07-7.08c-1.21-1.52-4.6-1.91-6.95-1.73c-1.75,0.14-3.47,1.85-5.03,3.08
		c-12.57,9.88-25.39,19.46-37.57,29.81c-13,11.04-25.27,23.12-31.74,39.29c-4.56,11.39-8.12,23.27-10.98,35.21
		c-9.07,37.93-30.9,64.74-66.67,80.76c-18.18,8.15-36.07,17.21-53.22,27.34c-20.47,12.1-40.03,25.75-59.9,38.85
		c-3.88,2.56-7.55,5.51-10.99,8.63c-17.15,15.54-20.41,36.55-8.68,56.45c2.78,4.72,6.37,8.95,9.37,13.55
		c3.63,5.57,7.61,11.01,10.39,17c7.65,16.44,5.05,33.16,0.2,49.77c-2.94,10.06-6.15,20.05-8.84,30.18c-1.8,6.78,0.26,9.26,7.1,9.82
		c-2.58,2.55-5.37,4.93-7.7,7.69c-8.63,10.23-9.62,22.74-9.97,35.31c-0.31,11.19-3.39,21.27-10.38,30.1
		c-3.51,4.44-6.95,8.94-10.23,13.55c-17.54,24.59-17.81,50.06-3.4,76.04c7.91,14.28,20.36,24.44,32.42,34.96
		c32.87,28.67,67.78,54.44,106.87,74.07c41.31,20.74,71.46,53.19,94.73,92.04c14.77,24.67,26.93,50.9,40.09,76.53
		c4.98,9.71,7.91,20.11,8.73,31.05c0.63,8.47,1.01,16.97,2.13,25.37c1.82,13.63,5.93,26.32,17.09,35.57
		c2.64,2.19,5.39,2.89,8.16,0.76c2.77-2.14,3.05-5,1.16-7.99c-9.47-15.04-12.24-31.74-12.58-49.17
		c-0.25-12.41-2.36-24.65-7.55-35.96c-6.38-13.91-13.5-27.48-20.37-41.17c-11.26-22.46-21.78-45.29-37.29-65.39
		c-23.13-29.98-49.27-56.22-83.56-73.68c-32.26-16.43-63.05-35.36-90.52-59.18c-14.32-12.41-29.41-24.2-42.12-38.13
		c-13.88-15.22-17.68-34.32-10.12-54.04c3.03-7.91,8.5-15.02,13.56-21.98c6.8-9.36,13.77-18.57,15.44-30.38
		c0.98-6.9,0.57-14.01,1.78-20.86c1.1-6.27,2.64-12.8,5.66-18.3C238.11,825.09,243.03,822.44,246.76,819.14z M712.77,207.21
		c0.02-0.45,0.04-0.9,0.07-1.35c12.33,0,24.65-0.02,36.98,0.01c11.23,0.02,20.74-4.06,28.75-11.86c2.5-2.44,5.1-4.79,7.76-7.05
		c6.24-5.31,13.39-7.85,21.3-4.93c6.51,2.4,12.86,5.44,18.91,8.86c10.24,5.78,20.81,10.68,32.43,12.51
		c9.95,1.57,18.71,5.19,26.88,11.09c13.15,9.49,27.18,9.49,41.51,2.45c5.67-2.78,11.37-5.56,17.23-7.88
		c11.3-4.46,18.75-1.69,24.61,8.88c2.01,3.63,3.53,7.55,5.66,11.11c2.98,4.98,6.06,9.95,9.6,14.53c2.27,2.94,5.76,4.41,9.21,1.63
		c3.17-2.54,2.43-5.75,0.84-9.04c-3.1-6.43-5.94-12.98-9.03-19.41c-2.02-4.19-3.93-8.51-6.56-12.3
		c-5.66-8.17-13.59-12.36-23.72-12.51c-11.32-0.17-21.14,4.24-30.56,9.67c-12.13,6.98-23.53,7-34.75-1.91
		c-6.91-5.49-15-8.43-23.73-9.83c-11.27-1.81-21.89-5.54-31.82-11.25c-4.9-2.82-9.94-5.43-15.1-7.75
		c-9.31-4.2-19.24-7.11-28.92-2.55c-6.9,3.25-13.49,7.94-18.92,13.31c-7.17,7.1-15.22,10.3-25.02,10.35
		c-15.66,0.07-31.32,0.58-46.97,0.36c-11.29-0.16-22.57-1.52-33.87-1.74c-8.43-0.17-17.07-0.36-25.29,1.19
		c-15.89,3.01-29.32,11.58-41.65,21.71c-15.34,12.61-30.84,24.83-49.69,32.06c-3.56,1.37-6.7,4.3-9.52,7.04
		c-2.56,2.48-3.46,5.83-0.7,8.96c2.79,3.15,5.75,2.21,8.94,0.32c5.28-3.13,10.8-5.85,16.11-8.94c8.61-5.01,17.4-9.78,25.62-15.38
		c9.89-6.74,19.01-14.61,28.91-21.35c12.8-8.71,26.73-13.67,42.75-12.2C678.24,205.59,695.53,206.18,712.77,207.21z M1306.71,569.12
		c0.29-0.02,0.58-0.05,0.87-0.07c-0.58-7.29-1.07-14.6-1.74-21.88c-1.62-17.53-7.29-33.38-19.1-46.8
		c-5.38-6.11-10.48-12.48-15.5-18.9c-2.48-3.17-5.19-5.73-9.2-3.47c-4.21,2.37-4,6.6-1.81,10.05c3.62,5.72,7.44,11.44,12,16.4
		c9.82,10.7,17.38,22.42,18.69,37.21c1,11.27,1.84,22.57,2.06,33.88c0.25,13.14,1.63,25.91,7.6,37.84c4.3,8.58,3.31,17.15-0.4,25.57
		c-5.88,13.34-11.89,26.64-17.89,39.93c-5.36,11.88-8.93,24.32-7.04,37.31c2.29,15.76,5.55,31.4,9.01,46.96
		c2.01,9.05,3.88,17.74,0.48,26.92c-2.82,7.63-5.2,15.48-7.08,23.39c-3.12,13.12-8.35,25.19-15.67,36.49
		c-5.79,8.94-9.36,18.83-9.86,29.53c-0.6,12.97-0.71,25.96-1.13,38.93c-0.14,4.49,1.16,8,5.88,9.13c3.16,0.76,7.08-2.73,7.96-7.52
		c1.02-5.54,1.95-11.18,1.99-16.79c0.1-11.7,0.5-23.32,4.18-34.55c0.98-2.99,1.76-6.24,3.5-8.77c13.54-19.68,18.35-42.61,24.7-64.99
		c3.66-12.9,3.18-25.53-0.33-38.38c-2.84-10.41-5.26-20.97-7.18-31.58c-2.54-14.05-1.35-27.88,4.59-41.06
		c5.74-12.74,11.76-25.37,17.27-38.21c5.97-13.91,5.45-27.83-0.95-41.58c-1.53-3.29-3.22-6.73-3.7-10.26
		C1307.8,585.67,1307.4,577.37,1306.71,569.12z M892.56,1188.06c-0.05,0.33-0.09,0.65-0.14,0.98c-9.81,0.51-19.73,0.31-29.42,1.68
		c-23.9,3.38-47.73,7.25-71.52,11.36c-33.91,5.85-66.98,14.7-98.47,28.87c-21.2,9.54-41.35,20.49-58.06,37.28
		c-8.76,8.8-19.1,16.05-28.85,23.84c-10.01,8-20.09,15.92-30.29,23.68c-6.72,5.12-9.83,12.53-12.63,19.96
		c-0.71,1.88,0.78,5.77,2.51,7.03c1.4,1.02,4.76-0.26,7.07-1.06c1.04-0.36,1.55-2.09,2.45-3.06c5.16-5.57,9.81-11.78,15.65-16.51
		c20.93-16.97,43.92-31.34,62.98-50.72c5.3-5.38,11.6-10.32,18.34-13.63c17.75-8.71,35.55-17.67,54.14-24.26
		c34.45-12.2,70.34-19.02,106.42-24.61c34.94-5.42,70.01-6.18,105.08-1.75c6.44,0.81,12.78,3.41,18.83,5.99
		c4.76,2.03,8.7,2.37,10.7-0.96c2.48-4.13,0.87-7.98-2.81-9.8c-7.22-3.58-14.63-7.81-22.4-9.07
		C925.76,1190.62,909.1,1189.7,892.56,1188.06z M892.46,788.17c-0.32,3.47-0.5,6.97-0.98,10.42c-2.59,18.41-10.43,34.97-18.51,51.39
		c-9.01,18.33-23.26,31.21-42.61,37.71c-14.63,4.91-29.45,9.58-44.53,12.75c-16.8,3.53-33.65,4.14-46.29-11.35
		c-1.01-1.23-4.91-1.78-6.01-0.88c-1.7,1.39-3.27,4.52-2.91,6.56c1.68,9.72,8.01,15.79,17.03,19.16c9.45,3.53,19.3,3.37,29.04,2.05
		c22.84-3.11,44.76-9.72,66.07-18.39c15.34-6.24,28.29-15.83,37.25-29.78c5.62-8.76,10.19-18.31,14.37-27.87
		c8.6-19.65,14.61-39.76,11.93-61.85c-2.85-23.57-20.1-44.8-43.03-51.21c-16.71-4.67-33.33-2.79-49.79,0.87
		c-9.54,2.12-18.97,5.05-28.12,8.48c-6.83,2.56-12.85,7.05-13.33,15.24c-0.14,2.37,1.73,5.83,3.75,7.11
		c2.87,1.83,5.24-0.62,7.45-3.06c2.66-2.95,5.73-6.19,9.3-7.57c16.52-6.42,33.72-10.18,51.5-10.52c11.06-0.22,21.5,2.39,30.43,9.31
		C888.01,757.22,892.31,771.79,892.46,788.17z M691.54,732.47c0.39-3.54,0.42-6.19,1.01-8.7c1.78-7.6,3.93-15.11,5.66-22.71
		c2.26-9.87,2.95-19.75-1.29-29.36c-2.67-6.05-6.96-10.55-13.79-10.7c-5.56-0.12-11.17,1.03-16.73,1.85
		c-2.44,0.36-4.77,1.54-7.21,1.91c-5.86,0.88-9.71-1.31-9.02-5.24c1.25-7.18,2.67-14.37,4.56-21.4c4.9-18.26,15.6-33.72,24.72-49.92
		c11.53-20.48,22.67-41.15,26.76-64.61c1.12-6.4,0.58-13.21-0.09-19.75c-0.44-4.31-3.73-7.29-8.43-6.78
		c-4.74,0.5-6.61,4.07-6.84,8.47c-0.1,1.96,0.28,3.96,0.45,5.93c0.24,2.87,1.25,5.92,0.6,8.57c-2.11,8.53-3.68,17.48-7.53,25.24
		c-10.47,21.13-21.93,41.76-33.12,62.53c-8.86,16.45-15.28,33.59-15.24,52.57c0.02,9.23,5.05,15.29,14.13,16.34
		c4.87,0.56,9.93-0.09,14.86-0.57c4.11-0.4,8.15-1.42,12.24-2.06c3.38-0.53,5.85,1.02,6,4.35c0.28,6.22,0.7,12.58-0.25,18.67
		c-1.84,11.91-7.17,23.2-6.02,35.69c0.83,9.01,6.49,13.89,15.48,12.52c14.97-2.29,25.74-11.86,36.21-21.65
		c1.2-1.12,1.22-5.18,0.12-6.62c-1.1-1.46-4.3-1.89-6.52-1.75c-1.55,0.1-2.96,1.95-4.48,2.96c-5.95,3.94-11.83,8.01-17.94,11.69
		C697.7,731.18,694.95,731.46,691.54,732.47z M1076.49,1186.07c6.25,0.03,13.65-3.04,19.34-8.24c12.23-11.2,18.77-24.89,17.66-41.72
		c-1.01-15.46,5.34-27.42,16.13-38.15c27.5-27.34,55.36-54.4,78.1-86.1c5.29-7.38,9.71-14.99,12.03-23.91
		c1.47-5.68,4.45-10.96,6.19-16.6c0.68-2.2,0.68-5.69-0.62-7.11c-1.31-1.43-5.2-2.09-6.94-1.17c-2.9,1.53-5.59,4.25-7.28,7.11
		c-1.99,3.37-3.1,7.34-4.11,11.18c-2.09,8-5.17,15.45-10.45,21.9c-8.86,10.82-17.11,22.2-26.64,32.4
		c-15.9,17.03-32.19,33.75-49.07,49.8c-15.54,14.78-24.48,31.79-22.62,53.59c0.83,9.75-2.9,17.82-9.73,24.16
		c-4.29,3.98-9.72,6.79-14.81,9.84c-3.17,1.91-6.21,3.81-5.31,8.03C1069.27,1185.3,1072.7,1186.14,1076.49,1186.07z M884.43,935.46
		c-10.54,1.28-17.58,5.99-20.14,14.53c-2.73,9.12-4.63,18.82-4.74,28.29c-0.12,10.36,1.43,20.92,3.66,31.09
		c4.27,19.45,12.91,36.31,31.68,46.07c1.53,0.8,2.85,2.75,3.45,4.46c2.41,6.9,4.17,14.04,6.78,20.85
		c5.83,15.21,11.55,30.5,18.24,45.34c4.11,9.13,10.04,17.38,20.69,20.3c3.49,0.96,6.99,0.88,8.65-2.73c1.63-3.54-0.91-5.6-3.69-7.68
		c-3.24-2.43-7.01-5.1-8.65-8.56c-5.86-12.45-11.13-25.2-16.23-37.99c-4.49-11.27-8.09-22.9-12.87-34.04
		c-1.56-3.64-5.07-7.66-8.63-8.99c-9.4-3.52-15.02-10.45-19.1-18.72c-9.13-18.51-11.57-38.45-10.21-58.76
		c0.61-9.12,1.38-18.93,12.96-22.44c1.71-0.52,3.65-4.66,3.22-6.64C889.07,937.88,885.79,936.54,884.43,935.46z M479.96,588.86
		c-1.96,7.88-8.56,13.63-15.37,14.2c-5.27,0.44-8.52-2.08-8.35-7.42c0.11-3.56,0.86-7.39,2.4-10.58
		c8.3-17.2,21.89-28.71,39.71-35.14c12.81-4.62,24.22-2.13,33.84,7.84c3.71,3.84,7.4,4.51,9.98,1.86c3.49-3.59,1.82-7.01-0.8-10.21
		c-10.07-12.25-23.2-17.7-38.62-14.75c-26.5,5.07-45.25,20.83-57.07,44.84c-3.14,6.37-4.2,13.31-2.78,20.46
		c1.61,8.12,8.05,14.54,16.02,15.91c13.9,2.39,30.58-8.54,33.85-22.19c2.04-8.52-2.33-16.29-10.5-17.34
		c-3.98-0.51-8.27,0.3-12.24,1.23c-3.37,0.79-5.48,3.46-4.6,7.18c0.86,3.64,3.73,4.89,7.26,4.72
		C474.93,589.36,477.2,589.1,479.96,588.86z M593.14,1434.22c4.1,1.03,7.55,2.21,11.1,2.68c1.79,0.23,4.25-0.27,5.55-1.41
		c34.37-30.12,70.54-57.66,111.39-78.59c4.77-2.45,6.62-6.12,4.62-9.49c-2.53-4.25-6.38-3.83-10.05-1.98
		c-6.97,3.53-14.1,6.88-20.6,11.15c-19.75,12.95-39.29,26.21-58.8,39.51C620.63,1406.8,606.13,1418.95,593.14,1434.22z
		 M936.64,1291.54c-0.01-0.23-0.01-0.46-0.02-0.69c-6.97,0.37-13.94,0.72-20.91,1.13c-25.34,1.47-50.2,5.72-74.45,13.3
		c-4.91,1.53-7.11,4.67-6.04,8.22c1.08,3.57,4.51,4.98,9.52,3.64c21.42-5.73,43.12-9.83,65.29-11.12
		c12.78-0.74,25.58-1.19,38.37-1.85c4.66-0.24,7.64-2.84,7.35-6.45c-0.35-4.26-3.23-6-7.15-6.15
		C944.62,1291.42,940.63,1291.54,936.64,1291.54z M483.95,1395.13c5.06,2.31,9.06,4.13,13.34,6.08c3.78-7.93,7.33-15.4,10.83-22.75
		c8.07,1.01,10.36-0.86,11.29-8.86c0.17-1.49,0.4-2.99,0.35-4.48c-0.22-7-6.58-10.72-12.71-7.24c-2.1,1.19-4.26,2.95-5.43,5
		C495.64,1373.38,489.97,1384.06,483.95,1395.13z"/>
	<path class="st1" d="M236.4,811.2c2.62-0.19,5.25-0.38,7.87-0.57c0.83,2.84,1.67,5.68,2.5,8.51c-3.73,3.3-8.65,5.95-10.91,10.06
		c-3.02,5.5-4.56,12.02-5.66,18.3c-1.2,6.84-0.8,13.96-1.78,20.86c-1.67,11.81-8.64,21.02-15.44,30.38
		c-5.06,6.96-10.53,14.08-13.56,21.98c-7.56,19.72-3.76,38.82,10.12,54.04c12.7,13.93,27.8,25.72,42.12,38.13
		c27.48,23.82,58.26,42.76,90.52,59.18c34.29,17.46,60.43,43.7,83.56,73.68c15.51,20.1,26.02,42.93,37.29,65.39
		c6.86,13.69,13.99,27.26,20.37,41.17c5.19,11.31,7.3,23.56,7.55,35.96c0.35,17.43,3.11,34.13,12.58,49.17
		c1.89,3,1.61,5.86-1.16,7.99c-2.76,2.13-5.51,1.43-8.16-0.76c-11.16-9.25-15.27-21.94-17.09-35.57c-1.12-8.4-1.5-16.91-2.13-25.37
		c-0.82-10.95-3.74-21.34-8.73-31.05c-13.15-25.63-25.31-51.86-40.09-76.53c-23.27-38.85-53.42-71.3-94.73-92.04
		c-39.1-19.63-74-45.4-106.87-74.07c-12.06-10.52-24.51-20.69-32.42-34.96c-14.41-25.98-14.14-51.45,3.4-76.04
		c3.29-4.61,6.72-9.11,10.23-13.55c6.99-8.84,10.08-18.92,10.38-30.1c0.35-12.57,1.34-25.08,9.97-35.31
		c2.33-2.76,5.12-5.14,7.7-7.69C234.69,812,235.54,811.6,236.4,811.2z"/>
	<path class="st2" d="M974.01,186c-17.99-6.5-36.2-7.48-55.05-3.82c-9.52,1.85-19.53,2.27-29.24,1.78
		c-16.52-0.82-29.15-9.45-38.86-22.53c-2.98-4.01-5.7-8.21-8.68-12.22c-7.87-10.57-13.75-12.34-25.8-6.89
		c-10.31,4.66-20.17,10.32-30.5,14.93c-13.21,5.89-26.47,11.84-40.13,16.54c-22.39,7.69-44.83,4.77-65.74-4.78
		c-31.39-14.33-60.72-1.58-77.77,18.8c-5.23,6.26-10.69,12.34-16.26,18.3c-11.69,12.51-27.38,17.73-42.79,23.75
		c-22.1,8.62-40.39,23.13-56.62,40.1c-10.82,11.32-11.66,25.67-8.07,39.9c3,11.86,7.57,23.35,11.99,34.79
		c2.44,6.31,2.81,9.53-0.61,11.54c-3.4,2-7.4,0.75-10.65-4.74c-9.27-15.68-14.58-32.74-16.55-50.86
		c-1.81-16.66,3.23-30.88,15.03-42.69c3.06-3.06,6.23-6.05,9.66-8.68c19.97-15.32,39.91-30.61,64.57-38.13
		c15.9-4.85,26.38-16.94,36.51-29.24c12.14-14.74,26.66-25.65,45.31-31.3c6.07-1.84,11.87-2.08,17.86-2.42
		c10.91-0.63,20.91,2.98,31.01,6.58c8.42,3,17.07,5.6,25.82,7.41c13.58,2.82,26.79,0.89,39.48-4.85
		c19.25-8.71,38.73-16.94,57.83-25.97c24.27-11.47,38.38-8.3,52.33,14.63c12.21,20.08,29.73,25.57,51.62,22.7
		c11.53-1.51,23.11-2.98,34.71-3.46c12.61-0.52,24.07,4.69,35.3,9.73c2.02,0.91,2.78,4.64,4.12,7.06
		C978.94,179.29,976.43,182.53,974.01,186z"/>
	<path class="st3" d="M1266.83,958.79c2.25-6.59,3.83-13.5,6.86-19.71c10.62-21.75,13.85-44.79,12.21-68.53
		c-1.04-15,2.07-27.96,12.73-38.96c5.77-5.96,9.17-13.35,8.35-21.77c-1.76-18.02,0.47-35.41,5.85-52.7
		c4.84-15.54,4.46-31.55,1.42-47.47c-2.35-12.33-0.37-24.03,3.94-35.71c6.85-18.56,13.48-37.23,19.51-56.07
		c4.59-14.34,4.42-29.24,2.2-44.03c-1.14-7.59-4.89-14.17-10.2-19.68c-12.6-13.05-17.7-29.28-20.91-46.62
		c-2.94-15.85-6.78-31.54-10.54-47.23c-3.54-14.76-14.99-19.76-28.37-22.14c-2.29-0.41-4.59-0.81-6.84-1.41
		c-7.46-1.97-8.22-3.01-8.19-10.64c2.5-1.28,5.01-2.57,7.51-3.85c1.06,0.6,2.05,1.5,3.19,1.76c4.05,0.93,8.15,1.62,12.23,2.44
		c18.99,3.83,30.56,15.61,35.13,34.05c4.4,17.74,7.97,35.68,12.03,53.5c2.59,11.37,7.14,21.71,15.43,30.29
		c10.31,10.66,14.58,23.79,15.62,38.45c1.53,21.62-3.48,41.97-10.64,62.01c-3.86,10.8-7.5,21.71-11.93,32.28
		c-4.83,11.52-5.38,23.17-3.31,35.24c3.21,18.72,1.76,37.14-4,55.22c-3.74,11.75-4.74,23.73-3.63,35.99
		c1.27,14.01-1.75,26.98-11.5,37.53c-7.81,8.45-10.51,17.99-9.37,29.32c1.83,18.08-0.14,36.04-5.27,53.36
		c-3.47,11.71-8.9,22.84-13.46,34.23c-3.48-2.37-7.11-2.41-10.92-0.84C1270.29,957.79,1268.54,958.24,1266.83,958.79z"/>
	<path class="st4" d="M236.4,811.2c-0.86,0.4-1.71,0.8-2.57,1.19c-6.84-0.56-8.9-3.04-7.1-9.82c2.68-10.13,5.9-20.12,8.84-30.18
		c4.85-16.61,7.46-33.33-0.2-49.77c-2.78-5.98-6.77-11.43-10.39-17c-3-4.6-6.59-8.83-9.37-13.55c-11.73-19.9-8.47-40.91,8.68-56.45
		c3.45-3.12,7.11-6.07,10.99-8.63c19.87-13.11,39.43-26.75,59.9-38.85c17.14-10.14,35.03-19.2,53.22-27.34
		c35.77-16.02,57.6-42.83,66.67-80.76c2.85-11.94,6.42-23.83,10.98-35.21c6.47-16.17,18.74-28.25,31.74-39.29
		c12.18-10.34,25-19.93,37.57-29.81c1.56-1.23,3.28-2.94,5.03-3.08c2.35-0.18,5.73,0.21,6.95,1.73c1.17,1.47,0.62,4.83-0.07,7.08
		c-0.47,1.51-2.43,2.64-3.84,3.78c-11.02,8.88-21.95,17.88-33.14,26.55c-22.27,17.26-36.06,39.39-41.45,67.28
		c-4.68,24.21-14.4,46.34-31.7,64.62c-13.44,14.21-29.79,23.96-47.59,31.44c-24.55,10.31-47.25,23.67-68.85,39.22
		c-12,8.64-24.96,15.94-37.48,23.85c-7.13,4.5-13.46,9.8-17.54,17.38c-4.15,7.69-4.78,15.71-0.97,23.51
		c2.75,5.64,6.65,10.71,9.89,16.12c5.54,9.24,12.13,18.07,16.17,27.93c6.22,15.19,4.45,31.22-0.1,46.61
		C246.51,783.73,241.2,797.39,236.4,811.2z"/>
	<path class="st5" d="M712.77,207.21c-17.25-1.03-34.53-1.62-51.73-3.21c-16.02-1.48-29.95,3.49-42.75,12.2
		c-9.9,6.73-19.02,14.6-28.91,21.35c-8.22,5.6-17.01,10.37-25.62,15.38c-5.31,3.09-10.83,5.81-16.11,8.94
		c-3.2,1.89-6.16,2.83-8.94-0.32c-2.76-3.12-1.86-6.47,0.7-8.96c2.82-2.74,5.95-5.68,9.52-7.04c18.85-7.23,34.35-19.45,49.69-32.06
		c12.33-10.14,25.76-18.71,41.65-21.71c8.22-1.55,16.85-1.36,25.29-1.19c11.3,0.22,22.57,1.58,33.87,1.74
		c15.65,0.22,31.31-0.29,46.97-0.36c9.79-0.05,17.84-3.25,25.02-10.35c5.42-5.37,12.02-10.06,18.92-13.31
		c9.68-4.56,19.61-1.64,28.92,2.55c5.15,2.32,10.2,4.94,15.1,7.75c9.94,5.71,20.56,9.44,31.82,11.25c8.73,1.4,16.81,4.34,23.73,9.83
		c11.23,8.91,22.63,8.89,34.75,1.91c9.42-5.43,19.24-9.84,30.56-9.67c10.13,0.15,18.06,4.33,23.72,12.51
		c2.63,3.79,4.54,8.12,6.56,12.3c3.1,6.43,5.93,12.99,9.03,19.41c1.59,3.29,2.33,6.5-0.84,9.04c-3.46,2.77-6.95,1.31-9.21-1.63
		c-3.54-4.58-6.62-9.55-9.6-14.53c-2.13-3.56-3.65-7.47-5.66-11.11c-5.86-10.57-13.31-13.34-24.61-8.88
		c-5.87,2.32-11.57,5.09-17.23,7.88c-14.33,7.04-28.36,7.04-41.51-2.45c-8.18-5.9-16.93-9.52-26.88-11.09
		c-11.62-1.83-22.2-6.74-32.43-12.51c-6.05-3.42-12.4-6.45-18.91-8.86c-7.91-2.92-15.07-0.38-21.3,4.93
		c-2.66,2.27-5.25,4.62-7.76,7.05c-8.01,7.8-17.52,11.88-28.75,11.86c-12.33-0.02-24.65-0.01-36.98-0.01
		C712.82,206.31,712.79,206.76,712.77,207.21z"/>
	<path class="st6" d="M1306.71,569.12c0.69,8.25,1.09,16.54,2.19,24.74c0.47,3.53,2.16,6.97,3.7,10.26
		c6.4,13.75,6.92,27.67,0.95,41.58c-5.51,12.84-11.53,25.46-17.27,38.21c-5.94,13.18-7.13,27.01-4.59,41.06
		c1.92,10.62,4.35,21.17,7.18,31.58c3.5,12.85,3.99,25.48,0.33,38.38c-6.35,22.39-11.17,45.31-24.7,64.99
		c-1.74,2.53-2.52,5.77-3.5,8.77c-3.67,11.23-4.08,22.85-4.18,34.55c-0.05,5.61-0.97,11.25-1.99,16.79
		c-0.88,4.78-4.8,8.27-7.96,7.52c-4.72-1.13-6.02-4.64-5.88-9.13c0.41-12.98,0.52-25.97,1.13-38.93c0.5-10.7,4.07-20.59,9.86-29.53
		c7.32-11.3,12.55-23.37,15.67-36.49c1.88-7.92,4.26-15.76,7.08-23.39c3.39-9.18,1.53-17.87-0.48-26.92
		c-3.45-15.56-6.72-31.2-9.01-46.96c-1.89-12.99,1.68-25.43,7.04-37.31c6-13.29,12-26.59,17.89-39.93c3.71-8.42,4.7-16.99,0.4-25.57
		c-5.97-11.93-7.35-24.7-7.6-37.84c-0.22-11.3-1.06-22.61-2.06-33.88c-1.31-14.79-8.86-26.51-18.69-37.21
		c-4.56-4.97-8.38-10.69-12-16.4c-2.19-3.45-2.4-7.68,1.81-10.05c4.01-2.26,6.72,0.3,9.2,3.47c5.02,6.42,10.12,12.78,15.5,18.9
		c11.81,13.42,17.49,29.27,19.1,46.8c0.67,7.29,1.17,14.59,1.74,21.88C1307.29,569.07,1307,569.1,1306.71,569.12z"/>
	<path class="st7" d="M892.56,1188.06c16.54,1.64,33.2,2.56,49.58,5.22c7.77,1.26,15.17,5.49,22.4,9.07
		c3.68,1.83,5.29,5.68,2.81,9.8c-2,3.33-5.94,2.99-10.7,0.96c-6.05-2.57-12.39-5.17-18.83-5.99c-35.08-4.43-70.14-3.67-105.08,1.75
		c-36.08,5.6-71.97,12.42-106.42,24.61c-18.59,6.58-36.39,15.54-54.14,24.26c-6.74,3.31-13.05,8.24-18.34,13.63
		c-19.06,19.38-42.05,33.75-62.98,50.72c-5.84,4.74-10.49,10.94-15.65,16.51c-0.9,0.97-1.41,2.7-2.45,3.06
		c-2.31,0.79-5.66,2.08-7.07,1.06c-1.73-1.25-3.22-5.14-2.51-7.03c2.8-7.43,5.9-14.83,12.63-19.96
		c10.19-7.77,20.28-15.68,30.29-23.68c9.75-7.79,20.09-15.04,28.85-23.84c16.71-16.79,36.86-27.74,58.06-37.28
		c31.49-14.17,64.56-23.02,98.47-28.87c23.79-4.1,47.62-7.97,71.52-11.36c9.69-1.37,19.61-1.17,29.42-1.68
		C892.47,1188.72,892.51,1188.39,892.56,1188.06z"/>
	<path class="st8" d="M1262.35,422.28c-2.5,1.28-5.01,2.57-7.51,3.85c-2.73-3.92-5.46-7.83-8.2-11.75
		c-0.56-1.11-1.12-2.21-1.69-3.32c-7.41-19.21-15.4-37.83-33.4-50.25c-5.24-3.62-8.85-9.77-12.77-15.08
		c-2.34-3.18-3.92-6.95-5.68-10.53c-5.57-11.38-14.14-19.01-26.47-22.65c-11.64-3.44-23.06-7.65-34.64-11.31
		c-14.49-4.58-23.25-14.35-26.86-28.93c-1.6-6.46-2.81-13.03-4.63-19.42c-4.24-14.88-9.64-17.82-25.02-17.66
		c-14.1,0.15-28.33-0.63-42.26-2.67c-6.87-1-13.96-4.74-19.62-9.01c-12.57-9.48-24.4-19.96-36.27-30.33
		c-1.82-1.59-2.25-4.78-3.33-7.22c2.42-3.47,4.93-6.71,9.86-4.04c8.56,7,17.75,13.36,25.54,21.13
		c13.9,13.89,30.62,18.43,49.54,18.03c9.8-0.21,19.66-0.13,29.42,0.65c10.08,0.81,17.61,6.59,21.69,15.61
		c3.4,7.51,5.36,15.67,7.85,23.58c0.75,2.37,1.19,4.85,1.72,7.29c2.33,10.75,9.2,16.73,19.56,19.78c12.28,3.62,24.4,7.8,36.54,11.91
		c12.71,4.3,22.66,12.25,28.6,24.28c6.46,13.07,14.61,24.28,26.63,32.97c8.63,6.24,13.82,15.79,17.83,25.56
		c4.79,11.69,8.87,23.66,13.25,35.51c-0.06,0.2-0.01,0.36,0.15,0.5C1262.24,419.93,1262.3,421.1,1262.35,422.28z"/>
	<path class="st8" d="M1266.83,958.79c1.71-0.55,3.46-1,5.11-1.68c3.81-1.57,7.44-1.53,10.92,0.84c1.86,5.33,0.15,8.54-5.03,11.18
		c-2.75,1.4-4.93,4.94-6.25,8c-7.96,18.46-16.31,36.65-20.07,56.77c-4.03,21.55-19.2,35.83-36.94,46.94
		c-9.65,6.05-20.76,9.73-30.86,15.14c-7.4,3.97-14.81,8.33-21.15,13.75c-7.69,6.57-14.24,14.47-21.32,21.75
		c-7.42,7.63-10.89,16.98-12.08,27.34c-2.32,20.24-11.74,37.33-24.3,52.76c-3.46,4.25-8.51,7.54-13.41,10.19
		c-9.2,4.98-18.72,9.43-28.33,13.59c-6.57,2.84-11.87,6.4-14.38,13.53c-0.65,1.84-3.07,3.06-4.68,4.56c-0.87-1.46-1.8-2.9-2.61-4.39
		c-1.27-2.33-2.47-4.7-3.7-7.05c0.83-8.23,5.65-13.78,12.56-17.42c7.2-3.79,14.55-7.44,22.17-10.22
		c20.31-7.41,30.82-23.42,37.91-42.38c2.25-6.02,3.76-12.46,4.55-18.84c1.4-11.33,5.74-21.17,13.31-29.52
		c7.26-8.01,14.76-15.81,22.39-23.48c9.32-9.37,20.89-15.17,32.9-20.33c13.59-5.85,27.04-11.92,37.98-22.49
		c9.94-9.6,15.98-20.72,18.45-34.45c4.02-22.34,13.69-42.56,25.76-61.66c0.26-0.42,0.43-0.9,0.63-1.35c0.15-0.33,0.3-0.66,0.44-0.99
		L1266.83,958.79z"/>
	<path class="st9" d="M892.46,788.17c-0.15-16.38-4.45-30.95-17.99-41.45c-8.93-6.93-19.37-9.53-30.43-9.31
		c-17.77,0.35-34.98,4.1-51.5,10.52c-3.56,1.39-6.63,4.62-9.3,7.57c-2.21,2.45-4.58,4.9-7.45,3.06c-2.02-1.29-3.89-4.75-3.75-7.11
		c0.49-8.19,6.5-12.68,13.33-15.24c9.15-3.43,18.58-6.36,28.12-8.48c16.46-3.66,33.08-5.54,49.79-0.87
		c22.93,6.41,40.17,27.64,43.03,51.21c2.67,22.09-3.34,42.2-11.93,61.85c-4.18,9.57-8.75,19.11-14.37,27.87
		c-8.96,13.95-21.91,23.54-37.25,29.78c-21.31,8.67-43.23,15.28-66.07,18.39c-9.74,1.33-19.59,1.49-29.04-2.05
		c-9.02-3.37-15.35-9.44-17.03-19.16c-0.35-2.05,1.22-5.17,2.91-6.56c1.1-0.9,5-0.36,6.01,0.88c12.64,15.49,29.49,14.88,46.29,11.35
		c15.07-3.16,29.89-7.84,44.53-12.75c19.35-6.49,33.6-19.38,42.61-37.71c8.07-16.42,15.92-32.98,18.51-51.39
		C891.96,795.13,892.14,791.64,892.46,788.17z"/>
	<path class="st10" d="M691.54,732.47c3.42-1.02,6.16-1.29,8.29-2.57c6.11-3.67,11.99-7.75,17.94-11.69c1.52-1,2.93-2.86,4.48-2.96
		c2.22-0.14,5.42,0.3,6.52,1.75c1.09,1.44,1.08,5.5-0.12,6.62c-10.47,9.79-21.24,19.36-36.21,21.65
		c-8.98,1.37-14.64-3.51-15.48-12.52c-1.16-12.49,4.17-23.78,6.02-35.69c0.94-6.1,0.53-12.46,0.25-18.67
		c-0.15-3.33-2.62-4.88-6-4.35c-4.09,0.64-8.13,1.66-12.24,2.06c-4.93,0.48-9.99,1.13-14.86,0.57c-9.08-1.04-14.11-7.11-14.13-16.34
		c-0.04-18.98,6.37-36.12,15.24-52.57c11.19-20.77,22.66-41.4,33.12-62.53c3.85-7.76,5.42-16.71,7.53-25.24
		c0.65-2.65-0.35-5.7-0.6-8.57c-0.17-1.98-0.55-3.97-0.45-5.93c0.23-4.4,2.11-7.97,6.84-8.47c4.71-0.5,7.99,2.47,8.43,6.78
		c0.67,6.53,1.21,13.35,0.09,19.75c-4.1,23.46-15.23,44.13-26.76,64.61c-9.12,16.2-19.82,31.66-24.72,49.92
		c-1.89,7.04-3.3,14.22-4.56,21.4c-0.69,3.92,3.16,6.11,9.02,5.24c2.44-0.37,4.77-1.55,7.21-1.91c5.55-0.82,11.16-1.97,16.73-1.85
		c6.82,0.15,11.12,4.65,13.79,10.7c4.24,9.61,3.54,19.49,1.29,29.36c-1.74,7.61-3.88,15.12-5.66,22.71
		C691.96,726.28,691.93,728.93,691.54,732.47z"/>
	<path class="st4" d="M1076.49,1186.07c-3.78,0.07-7.22-0.78-8.12-5c-0.9-4.22,2.13-6.12,5.31-8.03c5.09-3.05,10.52-5.86,14.81-9.84
		c6.83-6.34,10.56-14.41,9.73-24.16c-1.86-21.81,7.07-38.81,22.62-53.59c16.88-16.06,33.17-32.77,49.07-49.8
		c9.52-10.2,17.78-21.58,26.64-32.4c5.28-6.45,8.37-13.9,10.45-21.9c1-3.84,2.12-7.82,4.11-11.18c1.69-2.86,4.37-5.58,7.28-7.11
		c1.74-0.92,5.63-0.26,6.94,1.17c1.3,1.42,1.3,4.91,0.62,7.11c-1.74,5.64-4.71,10.92-6.19,16.6c-2.31,8.92-6.73,16.53-12.03,23.91
		c-22.74,31.7-50.59,58.76-78.1,86.1c-10.79,10.73-17.14,22.69-16.13,38.15c1.1,16.83-5.43,30.52-17.66,41.72
		C1090.14,1183.03,1082.74,1186.1,1076.49,1186.07z"/>
	<path class="st4" d="M1244.96,411.06c0.56,1.11,1.13,2.22,1.69,3.32c-1.17,5.12-4.77,7.21-9.57,6.74
		c-4.92-0.49-10.36-0.62-14.54-2.85c-15.46-8.25-27.67-19.62-31.54-37.76c-1.11-5.21-2.22-10.42-3.65-15.54
		c-1.74-6.21-5.76-10.51-12.09-12.18c-17.93-4.74-35.91-8.55-54.71-5.5c-17.14,2.78-26.21-2.6-30.54-19.41
		c-3.05-11.83-4.01-24.21-5.87-36.34c-0.28-1.81-0.28-3.66-0.57-5.46c-1.62-10.03-6.51-14.5-16.68-15.13
		c-2.82-0.18-5.66,0.07-8.49,0c-3.51-0.09-6.34-1.38-6.72-5.27c-0.36-3.77,1.93-5.71,5.35-6.74c17.24-5.17,36.45,5.97,39.76,23.77
		c2.03,10.94,2.64,22.14,4.2,33.18c0.55,3.92,1.92,7.74,3.05,11.56c1.5,5.07,4.98,7.21,10.22,6.69c7.12-0.71,14.24-1.8,21.37-1.92
		c15.64-0.26,30.83,3.03,45.54,7.95c13.2,4.41,19.74,15.08,21.71,28.2c2.41,16.07,9.65,28.6,24.03,36.45
		c3.55,1.94,7.69,2.77,11.57,4.09C1240.63,409.64,1242.8,410.34,1244.96,411.06z"/>
	<path class="st11" d="M884.43,935.46c1.36,1.08,4.64,2.42,5.07,4.37c0.43,1.98-1.51,6.12-3.22,6.64
		c-11.58,3.51-12.35,13.32-12.96,22.44c-1.36,20.31,1.08,40.25,10.21,58.76c4.08,8.27,9.7,15.2,19.1,18.72
		c3.56,1.33,7.07,5.35,8.63,8.99c4.78,11.13,8.38,22.77,12.87,34.04c5.1,12.79,10.36,25.54,16.23,37.99
		c1.63,3.46,5.4,6.13,8.65,8.56c2.78,2.08,5.32,4.14,3.69,7.68c-1.66,3.61-5.15,3.69-8.65,2.73c-10.66-2.93-16.58-11.18-20.69-20.3
		c-6.69-14.84-12.41-30.12-18.24-45.34c-2.61-6.82-4.37-13.96-6.78-20.85c-0.6-1.71-1.92-3.66-3.45-4.46
		c-18.77-9.75-27.41-26.61-31.68-46.07c-2.23-10.16-3.78-20.73-3.66-31.09c0.11-9.47,2.01-19.17,4.74-28.29
		C866.85,941.45,873.89,936.74,884.43,935.46z"/>
	<path class="st12" d="M479.96,588.86c-2.75,0.24-5.03,0.5-7.3,0.61c-3.53,0.18-6.41-1.07-7.26-4.72c-0.87-3.72,1.24-6.39,4.6-7.18
		c3.98-0.93,8.27-1.74,12.24-1.23c8.17,1.06,12.54,8.82,10.5,17.34c-3.27,13.65-19.94,24.58-33.85,22.19
		c-7.96-1.37-14.41-7.79-16.02-15.91c-1.42-7.15-0.35-14.09,2.78-20.46c11.83-24.01,30.57-39.77,57.07-44.84
		c15.42-2.95,28.56,2.5,38.62,14.75c2.62,3.19,4.3,6.62,0.8,10.21c-2.58,2.65-6.28,1.98-9.98-1.86
		c-9.61-9.97-21.03-12.46-33.84-7.84c-17.82,6.43-31.41,17.95-39.71,35.14c-1.54,3.19-2.29,7.01-2.4,10.58
		c-0.17,5.34,3.08,7.86,8.35,7.42C471.4,602.5,478,596.74,479.96,588.86z"/>
	<path class="st7" d="M593.14,1434.22c12.99-15.27,27.49-27.41,43.21-38.14c19.51-13.31,39.05-26.57,58.8-39.51
		c6.51-4.27,13.64-7.62,20.6-11.15c3.67-1.86,7.53-2.28,10.05,1.98c2.01,3.37,0.16,7.05-4.62,9.49
		c-40.85,20.93-77.02,48.47-111.39,78.59c-1.3,1.14-3.76,1.64-5.55,1.41C600.69,1436.43,597.24,1435.25,593.14,1434.22z"/>
	<path class="st13" d="M1037.76,1242.01c1.23,2.35,2.43,4.72,3.7,7.05c0.82,1.49,1.74,2.93,2.61,4.39
		c-0.19,0.53-0.69,1.17-0.54,1.56c6.34,15.99,13.18,31.81,18.99,47.99c4.97,13.83,3.14,28.17,0.82,42.34
		c-3.19,2.67-4.2,5.91-2.59,9.84c-1.47,2.59-2.79,5.27-4.44,7.73c-2.1,3.14-5.17,4.44-8.59,2.44c-3.31-1.94-3.15-5-1.78-8.31
		c6.67-16.1,7.74-32.9,2.53-49.24c-5.67-17.82-13.32-35.01-20.11-52.48c-0.06-0.15-0.13-0.3-0.2-0.45
		c-1.71-3.67-3.41-7.36-0.45-11.21C1030.53,1239.99,1034.21,1241.4,1037.76,1242.01z"/>
	<path class="st7" d="M936.64,1291.54c3.99,0,7.98-0.11,11.97,0.03c3.92,0.14,6.81,1.89,7.15,6.15c0.29,3.61-2.69,6.21-7.35,6.45
		c-12.79,0.66-25.59,1.11-38.37,1.85c-22.17,1.29-43.87,5.39-65.29,11.12c-5.02,1.34-8.44-0.07-9.52-3.64
		c-1.07-3.55,1.13-6.69,6.04-8.22c24.25-7.57,49.1-11.82,74.45-13.3c6.97-0.41,13.94-0.75,20.91-1.13
		C936.62,1291.08,936.63,1291.31,936.64,1291.54z"/>
	<path class="st12" d="M246.76,819.14c-0.83-2.84-1.67-5.68-2.5-8.51c5.3-6.66,7.97-6.6,14.25-0.46c2.21,2.16,5.26,3.43,7.86,5.21
		c10.02,6.85,19.74,14.21,30.14,20.42c5.39,3.22,11.96,4.45,18.01,6.56c0.46,0.16,0.98,0.15,1.48,0.21c3.89,0.48,7,2.19,6.71,6.5
		c-0.32,4.61-3.87,5.69-7.93,5.68c-10.38-0.01-19.52-3.83-27.99-9.37c-9.18-6.01-18.12-12.39-27.25-18.47
		C255.39,824.16,251.03,821.72,246.76,819.14z"/>
	<path class="st13" d="M483.95,1395.13c6.02-11.07,11.68-21.75,17.66-32.24c1.17-2.05,3.33-3.81,5.43-5
		c6.13-3.47,12.49,0.24,12.71,7.24c0.05,1.49-0.18,2.99-0.35,4.48c-0.93,8-3.22,9.87-11.29,8.86c-3.5,7.34-7.05,14.81-10.83,22.75
		C493.02,1399.26,489.01,1397.43,483.95,1395.13z"/>
	<path class="st14" d="M1060.75,1355.18c-1.6-3.93-0.6-7.17,2.59-9.84c2.65,0.61,6.11,0.37,7.8,1.99
		c7.06,6.74,13.59,14.05,20.86,21.72c-2.57,1.58-5.62,3.69-8.91,5.31c-0.87,0.43-2.85-0.31-3.72-1.14
		C1073.08,1367.3,1066.94,1361.21,1060.75,1355.18z"/>
	<path class="st3" d="M1262.18,418.75c-0.16-0.14-0.2-0.3-0.15-0.5c0,0,0.3,0.2,0.3,0.2L1262.18,418.75z"/>
	<path class="st3" d="M1266.81,958.87c-0.15,0.33-0.3,0.66-0.44,0.99C1266.52,959.53,1266.66,959.2,1266.81,958.87z"/>
</g>
</svg>
