<svg version="1.1" id="Layer_1" xmlns="http://www.w3.org/2000/svg" xmlns:xlink="http://www.w3.org/1999/xlink" x="0px" y="0px"
	 width="100%" viewBox="0 0 2042 2049" enable-background="new 0 0 2042 2049" xml:space="preserve">
<path fill="#010101" opacity="1.000000" stroke="none" 
	d="
M598.000000,2050.000000 
	C399.009705,2050.000000 200.019379,2050.000000 1.021804,2050.000000 
	C1.014536,1367.042969 1.014536,684.085876 1.014536,1.064426 
	C681.590576,1.064426 1362.181152,1.064426 2042.885864,1.064426 
	C2042.885864,683.890625 2042.885864,1366.781250 2042.885864,2050.000000 
	C1568.631836,2050.000000 1094.263550,2050.000000 619.397705,2049.634766 
	C606.307922,2022.884155 605.962708,1995.502075 613.694641,1968.019653 
	C622.945557,1935.138184 638.116028,1904.589844 652.949219,1873.965088 
	C653.207520,1873.431641 653.753418,1873.037354 654.085266,1872.667236 
	C661.440247,1875.054688 666.521545,1873.648315 668.177979,1867.575073 
	C669.713135,1861.946289 670.114746,1855.822021 669.893433,1849.958252 
	C669.706970,1845.017212 664.978088,1841.516357 659.968384,1841.028320 
	C654.111694,1840.457764 649.465515,1842.971924 645.988342,1847.292358 
	C642.354553,1851.807617 638.600708,1856.442993 636.082031,1861.603027 
	C621.813232,1890.836426 607.427063,1920.036743 597.388123,1951.108765 
	C589.338745,1976.022461 585.963806,2001.364502 591.160706,2027.284546 
	C592.708313,2035.003174 595.680542,2042.436157 598.000000,2050.000000 
M1473.743164,1838.890869 
	C1481.937256,1846.941406 1490.288574,1854.839600 1498.285400,1863.081421 
	C1508.127808,1873.225464 1518.477539,1883.027954 1527.154785,1894.115234 
	C1539.156982,1909.451050 1541.831787,1928.596069 1546.165039,1947.034668 
	C1550.215088,1964.267578 1555.158081,1981.307617 1560.251831,1998.269287 
	C1562.082397,2004.365112 1567.183228,2006.860596 1571.692749,2005.486938 
	C1576.855469,2003.913940 1579.100464,1999.070801 1577.608643,1992.427856 
	C1573.065552,1972.199707 1568.396851,1951.999268 1563.927124,1931.755005 
	C1557.619141,1903.185791 1544.429688,1878.613037 1522.603638,1858.799683 
	C1511.871948,1849.057983 1501.438721,1838.978516 1491.094116,1828.823975 
	C1487.036987,1824.841187 1482.699219,1823.028809 1477.052124,1823.560425 
	C1477.563843,1820.281494 1478.122681,1817.009277 1478.579102,1813.722656 
	C1480.554443,1799.496826 1481.680664,1785.209229 1478.338379,1771.079346 
	C1472.404907,1745.994507 1463.697998,1721.867920 1452.348145,1698.703247 
	C1450.764771,1695.471680 1449.524536,1692.072266 1448.699829,1688.419189 
	C1451.064941,1686.035645 1454.586670,1684.056030 1455.585938,1681.195435 
	C1459.070679,1671.218994 1466.052002,1665.664307 1475.459839,1661.671509 
	C1488.739136,1656.035645 1501.662720,1649.558350 1514.708130,1643.376709 
	C1530.711548,1635.793457 1542.671387,1624.002930 1551.558716,1608.717285 
	C1563.160156,1588.763550 1573.188477,1568.397949 1575.335083,1544.862183 
	C1576.451294,1532.625854 1580.491821,1521.114868 1588.855591,1511.705688 
	C1596.598267,1502.995361 1604.822876,1494.712524 1612.547119,1485.986328 
	C1627.298706,1469.320679 1644.985474,1457.500244 1666.018799,1449.778931 
	C1693.040283,1439.859253 1717.081665,1424.975952 1735.873169,1402.495361 
	C1746.295166,1390.027588 1754.626099,1376.519653 1757.020996,1360.263428 
	C1761.500244,1329.860229 1775.556519,1302.965454 1787.528076,1275.313354 
	C1789.080444,1271.727783 1792.059937,1268.042847 1795.371216,1266.073486 
	C1804.483154,1260.654419 1804.984741,1260.397095 1803.429688,1249.524780 
	C1808.526123,1237.292725 1813.658936,1225.075562 1818.693359,1212.817871 
	C1819.952515,1209.752075 1821.088745,1206.608398 1821.951050,1203.411255 
	C1829.501099,1175.417480 1833.383789,1146.995361 1830.554565,1118.001709 
	C1829.040649,1102.487183 1832.854492,1089.185425 1843.550537,1077.661133 
	C1858.264526,1061.807861 1863.430176,1042.617432 1861.583618,1021.440063 
	C1859.914307,1002.296631 1861.708008,983.678223 1867.547852,965.306763 
	C1875.741455,939.530396 1877.736328,913.180298 1873.067383,886.463196 
	C1869.914185,868.419495 1870.354858,850.945190 1877.755371,833.671204 
	C1884.082397,818.902466 1889.168945,803.591248 1894.541870,788.427063 
	C1905.703979,756.924011 1914.348755,725.064148 1911.147705,690.982178 
	C1909.317749,671.498047 1904.187622,653.531616 1890.440308,639.286926 
	C1874.614502,622.888489 1867.374146,602.906799 1862.831055,581.220886 
	C1857.663940,556.556641 1852.123047,531.948853 1845.856934,507.544525 
	C1841.898560,492.128082 1833.169556,479.442902 1819.225098,470.900787 
	C1809.410889,464.888733 1798.472412,462.241760 1787.366455,460.000854 
	C1782.298706,458.978302 1777.293213,457.646912 1772.745239,455.615753 
	C1772.477905,453.174591 1772.670166,450.569611 1771.867920,448.319122 
	C1766.970947,434.578827 1762.019287,420.852966 1756.761108,407.247742 
	C1748.752930,386.527161 1738.590698,367.037262 1719.962769,353.786316 
	C1707.653442,345.030060 1698.454346,334.133148 1692.214478,320.509857 
	C1690.696167,317.195374 1688.785156,314.060455 1687.047607,310.846832 
	C1677.364136,292.937042 1663.027100,280.437927 1643.672119,273.961945 
	C1625.434814,267.859985 1607.231689,261.617706 1588.811646,256.112244 
	C1573.719360,251.601410 1564.310303,242.509811 1560.647705,227.023560 
	C1557.562988,213.980637 1554.580444,200.789536 1549.923218,188.270218 
	C1541.975342,166.904984 1526.562500,157.188843 1503.843384,156.975296 
	C1486.535156,156.812607 1469.226318,156.465271 1451.924805,155.956879 
	C1437.153931,155.522842 1423.555786,151.995392 1411.844727,142.007294 
	C1394.626465,127.322357 1376.877563,113.259781 1359.443848,98.190857 
	C1359.636719,93.932800 1357.967285,90.507103 1354.059204,88.867203 
	C1336.746826,81.602417 1319.437866,73.521370 1300.182617,74.183449 
	C1285.284058,74.695724 1270.414307,76.757576 1255.594360,78.626846 
	C1242.308105,80.302650 1229.040405,81.311134 1215.818726,78.911118 
	C1197.962891,75.669922 1185.487183,64.777779 1175.720947,50.009075 
	C1170.959106,42.808060 1165.905884,35.691784 1160.164795,29.270048 
	C1150.001709,17.902124 1137.110107,11.938975 1121.758911,15.196054 
	C1112.607544,17.137707 1103.641113,20.556259 1095.025269,24.306946 
	C1066.254517,36.831562 1037.831055,50.163567 1008.944031,62.406334 
	C999.288818,66.498344 988.796631,69.581024 978.414490,70.795807 
	C955.070007,73.527290 932.894714,67.697388 911.473450,58.601009 
	C896.167358,52.101360 880.357422,47.886299 863.510681,49.065228 
	C859.796753,49.325127 856.096436,49.778572 852.389832,50.142895 
	C852.307129,49.859692 852.224426,49.576488 852.141724,49.293285 
	C853.887329,48.389900 855.632935,47.486515 857.378601,46.583130 
	C844.819519,50.705120 832.263184,54.840488 820.309692,60.296429 
	C812.226196,63.985996 804.195923,68.629234 797.559570,74.459633 
	C787.093750,83.654274 777.008911,93.544174 768.216614,104.325371 
	C752.082214,124.109550 732.941956,138.929016 708.279724,146.306290 
	C702.891479,147.918060 697.610535,150.080887 692.538696,152.526230 
	C661.067078,167.699997 633.522827,188.626892 608.008606,212.138855 
	C591.453491,227.394821 584.266052,247.300827 585.492065,269.766418 
	C586.925903,296.041199 595.230774,320.548096 606.551331,344.058044 
	C608.663269,348.444000 612.091980,352.341339 615.484741,355.922668 
	C618.654663,359.268829 622.898682,359.776825 626.845154,356.989929 
	C630.851440,354.160828 631.050293,350.083252 629.604004,345.793091 
	C629.182739,344.543396 628.502991,343.371857 627.868286,342.204468 
	C616.863831,321.964935 610.180115,300.301392 607.386963,277.520355 
	C605.377991,261.135193 607.595886,245.152359 619.007935,232.499008 
	C628.090637,222.428314 638.340027,213.276459 648.826904,204.633255 
	C670.652161,186.645126 694.333679,171.888504 721.844177,163.693085 
	C736.251831,159.401047 749.678650,152.324829 760.810913,142.027908 
	C769.589600,133.908035 777.697083,125.008217 785.613708,116.023895 
	C796.657349,103.490685 807.560608,90.863907 822.568848,82.835930 
	C842.169189,72.351624 862.884949,66.825134 884.988342,72.221283 
	C896.047302,74.921104 906.576416,79.757919 917.393494,83.487915 
	C950.013367,94.735962 982.835815,97.004738 1015.387817,83.812843 
	C1036.454224,75.275543 1057.111450,65.711212 1077.821777,56.319592 
	C1090.073608,50.763657 1101.846069,44.108990 1114.241821,38.922760 
	C1129.061035,32.722549 1137.640991,35.489990 1147.264038,48.196796 
	C1151.481812,53.766167 1154.967407,59.939259 1159.541992,65.177505 
	C1166.513184,73.159592 1173.323364,81.637321 1181.652466,88.008034 
	C1202.189453,103.716316 1226.159546,104.886353 1250.710693,101.512802 
	C1263.217041,99.794334 1275.640503,97.330452 1288.189209,96.097282 
	C1307.767578,94.173317 1326.456177,99.142830 1345.026733,105.749931 
	C1344.531616,110.145264 1346.417114,113.445465 1349.688477,116.190094 
	C1366.778809,130.528336 1383.888062,144.844513 1400.909058,159.264832 
	C1412.726929,169.276947 1426.325073,174.665863 1441.719604,175.978394 
	C1461.959473,177.704025 1482.152100,179.237808 1502.536499,178.244644 
	C1517.684082,177.506607 1525.030273,182.784332 1529.893677,197.143448 
	C1533.338989,207.315155 1535.792725,217.873169 1538.002319,228.402847 
	C1543.308960,253.691254 1557.692627,270.076019 1582.894775,277.229767 
	C1599.308105,281.888733 1615.353760,287.832214 1631.610718,293.055115 
	C1645.707275,297.583954 1657.503784,305.096405 1665.034424,318.237457 
	C1668.664307,324.571411 1672.115845,331.010468 1675.530029,337.464447 
	C1681.186035,348.156525 1687.589355,358.370605 1697.871948,365.156464 
	C1724.701172,382.862000 1735.710083,410.961853 1746.334229,438.798065 
	C1743.767944,437.798920 1741.271729,436.505951 1738.618286,435.871521 
	C1734.922607,434.988007 1730.636475,435.510284 1727.423462,433.846558 
	C1707.608887,423.585968 1691.133057,410.244415 1686.816040,386.553650 
	C1686.013794,382.150787 1684.874146,377.810303 1683.939941,373.430389 
	C1679.300415,351.677460 1666.898560,337.070892 1645.038574,331.203979 
	C1641.035278,330.129517 1636.990601,329.201385 1632.946655,328.286469 
	C1609.299072,322.936035 1585.611084,319.725311 1561.272095,323.866791 
	C1542.951050,326.984344 1538.924438,326.026489 1534.285156,303.743652 
	C1530.978760,287.862640 1529.822998,271.513947 1528.061890,255.335419 
	C1524.724609,224.679016 1497.935791,205.744827 1468.015137,213.122284 
	C1462.409302,214.504501 1459.309326,218.428406 1459.888062,223.409485 
	C1460.435425,228.120010 1464.132935,230.920944 1469.977173,230.969177 
	C1474.473145,231.006271 1478.982300,230.744629 1483.463623,230.999847 
	C1495.813599,231.703156 1504.330444,238.339264 1506.712402,249.168808 
	C1507.493774,252.721588 1507.831421,256.408569 1508.007202,260.051819 
	C1508.978638,280.185089 1510.732056,300.166046 1517.677979,319.333374 
	C1525.122925,339.877716 1538.219482,348.148468 1559.770874,344.463196 
	C1588.447266,339.559540 1616.019775,345.022095 1643.454712,352.233856 
	C1652.236694,354.542328 1658.156494,360.559357 1660.901123,369.250183 
	C1662.593872,374.610138 1663.984741,380.104004 1665.000854,385.631592 
	C1667.745483,400.561340 1672.108032,414.684235 1683.125122,425.865082 
	C1695.939331,438.869507 1708.861450,451.386536 1728.456543,453.673340 
	C1739.775391,454.994293 1745.599854,452.767273 1749.738525,443.954010 
	C1753.455322,450.202026 1754.761108,458.105408 1761.906128,462.767090 
	C1760.120605,469.502258 1762.509399,473.863770 1769.638672,475.797607 
	C1775.875244,477.489288 1782.220215,478.859528 1788.585938,479.983032 
	C1809.424805,483.660950 1822.725098,495.190704 1827.227295,516.253967 
	C1832.113770,539.115845 1837.532593,561.873352 1841.936157,584.826599 
	C1846.689575,609.604431 1854.673218,632.597473 1872.680908,651.175720 
	C1879.975952,658.701965 1885.178955,667.644104 1887.098755,678.065613 
	C1891.067383,699.607788 1891.454712,721.419800 1885.094116,742.325134 
	C1876.266479,771.339172 1865.996460,799.943604 1855.478394,828.403503 
	C1848.963867,846.030396 1846.228027,863.627258 1849.730835,882.157288 
	C1854.504639,907.411987 1853.849854,932.488098 1846.161621,957.121460 
	C1839.957153,977.000549 1835.937622,997.180725 1838.498047,1018.014221 
	C1840.774170,1036.533325 1836.669189,1052.512329 1823.509033,1066.155151 
	C1809.605225,1080.568848 1805.769409,1098.182129 1807.413330,1117.759888 
	C1808.371216,1129.170044 1808.680176,1140.812378 1807.565430,1152.182129 
	C1805.159546,1176.718750 1800.196167,1200.649292 1788.968872,1223.085571 
	C1784.130371,1232.754761 1781.667725,1243.612915 1777.768921,1254.522095 
	C1773.861206,1260.667236 1769.353027,1266.518799 1766.176025,1273.020996 
	C1760.350098,1284.944458 1754.722900,1297.034058 1750.109497,1309.461426 
	C1745.685303,1321.379761 1741.985840,1333.664062 1739.185425,1346.062378 
	C1736.050171,1359.943848 1732.765625,1373.282227 1723.299194,1384.704590 
	C1708.822144,1402.172729 1691.040649,1414.701416 1670.521973,1423.905396 
	C1656.140503,1430.356323 1641.377686,1436.312134 1627.913940,1444.374268 
	C1605.331299,1457.896484 1588.705566,1478.259033 1571.619263,1497.821533 
	C1562.391357,1508.386841 1556.259399,1520.666870 1554.720581,1534.920044 
	C1552.396973,1556.440186 1544.736694,1576.009888 1533.679443,1594.544067 
	C1525.751221,1607.833130 1515.669922,1618.241943 1501.377930,1624.552368 
	C1488.781738,1630.114014 1476.486206,1636.360229 1463.860474,1641.849976 
	C1450.627930,1647.603760 1441.744751,1656.842773 1437.455566,1671.081421 
	C1433.005127,1669.345215 1428.635620,1668.850952 1424.959351,1672.646729 
	C1421.078125,1676.653809 1421.452148,1681.354370 1423.244873,1686.147339 
	C1423.592407,1687.076538 1424.147827,1687.926147 1424.532227,1688.843872 
	C1432.542114,1707.966553 1440.831543,1726.978760 1448.462891,1746.251343 
	C1456.557129,1766.693115 1461.233154,1787.812500 1459.057617,1810.061157 
	C1458.016724,1820.706421 1456.351074,1831.131592 1451.769653,1840.913574 
	C1448.914062,1847.010864 1449.748779,1851.463257 1454.146118,1854.063965 
	C1458.558105,1856.673462 1463.789062,1854.953491 1467.213501,1849.448242 
	C1469.393433,1845.943604 1471.171631,1842.189209 1473.743164,1838.890869 
M265.454071,1043.830078 
	C281.406006,1054.358521 297.148590,1065.224365 313.384003,1075.295776 
	C324.077393,1081.929321 335.113556,1088.308960 346.703674,1093.085815 
	C353.653503,1095.950195 361.941315,1096.004395 369.673401,1096.378418 
	C374.670319,1096.620117 377.971405,1092.699463 378.214325,1088.289062 
	C378.467041,1083.700195 375.308868,1079.962158 370.220703,1078.965576 
	C368.592957,1078.646851 366.845947,1078.813477 365.275391,1078.347412 
	C358.012390,1076.191772 350.202637,1074.967041 343.691559,1071.397095 
	C333.231171,1065.662231 323.619690,1058.372192 313.686890,1051.683716 
	C305.133667,1045.924316 296.580048,1040.162231 288.139557,1034.240356 
	C285.502869,1032.390503 283.414337,1029.746948 280.744141,1027.961060 
	C278.242584,1026.287964 275.419006,1024.608643 272.532166,1024.103394 
	C266.961700,1023.128479 264.587463,1027.817871 261.069214,1031.106323 
	C257.358612,1031.465820 253.648041,1031.825195 249.842667,1031.434937 
	C250.876846,1029.548096 252.223755,1027.765991 252.896469,1025.758057 
	C259.161987,1007.056580 265.742462,988.444580 271.366425,969.549133 
	C276.386475,952.682800 278.074921,935.327759 275.570953,917.722778 
	C272.896362,898.918335 264.321075,882.855408 253.202332,867.794250 
	C246.403427,858.584656 239.507767,849.301331 234.021912,839.301453 
	C225.722107,824.172180 227.216064,808.840637 238.030930,795.472351 
	C243.689194,788.478149 250.742722,782.272034 258.141541,777.107544 
	C268.882996,769.609741 280.756958,763.754333 291.697876,756.518005 
	C310.146332,744.316345 328.172272,731.478088 346.502533,719.095032 
	C371.551453,702.173157 399.233521,690.337891 426.663269,678.037842 
	C463.191650,661.657776 492.995544,637.605347 512.861450,602.299866 
	C524.781921,581.114929 531.684631,558.118103 537.030151,534.555786 
	C542.634338,509.853088 550.549927,486.039551 568.572876,467.303192 
	C579.403259,456.044098 590.903320,445.349030 602.791504,435.208344 
	C617.096680,423.006104 632.134338,411.662720 646.851318,399.943146 
	C647.892700,399.113861 648.942444,398.289185 649.924805,397.392792 
	C654.558777,393.164246 655.589539,388.056610 652.621216,384.194733 
	C649.472656,380.098389 644.033752,379.512787 638.798462,383.354309 
	C612.210571,402.863586 585.747375,422.540253 562.276428,445.869629 
	C546.378906,461.671112 533.417664,479.506897 526.408081,500.967224 
	C521.677979,515.448853 517.927002,530.260315 514.023499,544.999878 
	C506.332886,574.039185 494.210999,600.661560 472.925812,622.483337 
	C455.309204,640.544006 434.061646,653.051208 411.145294,662.963623 
	C382.132294,675.513184 353.574005,688.970703 327.769836,707.425842 
	C302.865082,725.237732 277.315643,741.949402 251.014786,757.656921 
	C240.648071,763.848206 231.095291,772.447449 223.346039,781.759460 
	C207.068817,801.319275 204.124039,823.763184 215.044998,847.031860 
	C219.103729,855.679626 225.084442,863.429932 230.239166,871.557495 
	C236.455612,881.359070 243.762939,890.628296 248.753387,901.014343 
	C258.677582,921.668457 257.098511,943.446960 251.467743,964.924500 
	C246.678146,983.193542 240.766785,1001.166138 235.787292,1019.388855 
	C233.006454,1029.565430 236.632950,1033.873047 246.748718,1034.640747 
	C233.674454,1043.303101 225.914505,1055.662842 223.101868,1070.812012 
	C221.318787,1080.415771 220.606476,1090.274048 220.137360,1100.052856 
	C219.474808,1113.863525 216.098145,1126.637329 207.869217,1137.889648 
	C202.070404,1145.818970 196.098007,1153.620972 190.266663,1161.526855 
	C171.882507,1186.450439 164.919617,1213.885742 172.171051,1244.409912 
	C178.277069,1270.112549 192.266403,1291.129639 211.879837,1308.221802 
	C235.856873,1329.116699 260.286957,1349.511108 284.956238,1369.587402 
	C317.508453,1396.078613 353.992859,1416.530762 390.670441,1436.560669 
	C420.611694,1452.911743 449.349609,1470.685303 472.481171,1496.408081 
	C495.226654,1521.701416 518.261719,1546.800293 534.387817,1577.040283 
	C553.795349,1613.433960 572.544006,1650.181030 591.357239,1686.888306 
	C598.312256,1700.458618 602.630798,1714.950439 603.982422,1730.203613 
	C605.113464,1742.967651 605.542786,1755.812378 607.150391,1768.511475 
	C609.743042,1788.991699 615.341553,1808.282593 631.975464,1822.456665 
	C636.542297,1826.348145 641.275024,1827.204956 644.957153,1824.087158 
	C648.602356,1821.000610 648.444641,1816.702026 645.863098,1811.411255 
	C641.216370,1801.888184 635.762451,1792.426758 633.220581,1782.293701 
	C630.095215,1769.834351 628.922913,1756.755737 628.131653,1743.869507 
	C626.794922,1722.100708 623.917542,1700.639404 614.313293,1680.939453 
	C596.819824,1645.057861 578.900635,1609.369751 560.408142,1573.993530 
	C544.100769,1542.797363 521.789612,1515.846680 498.462585,1489.660278 
	C475.963562,1464.403564 450.296173,1443.312256 420.618469,1427.031982 
	C400.199768,1415.830688 379.972076,1404.280884 359.671112,1392.865234 
	C324.827179,1373.271484 293.529083,1348.715942 262.730988,1323.472656 
	C244.572632,1308.589355 225.536896,1294.589722 210.621414,1276.213257 
	C191.310822,1252.421509 184.456390,1225.682983 194.141861,1195.930420 
	C198.645081,1182.097046 207.941116,1170.963989 216.718994,1159.654541 
	C227.229736,1146.112793 236.489563,1131.906128 238.531860,1114.398682 
	C239.783966,1103.665039 240.144531,1092.828369 240.945297,1082.040771 
	C241.989594,1067.972412 247.624969,1056.456665 259.567871,1048.374146 
	C261.467072,1047.088867 263.004486,1045.268921 265.454071,1043.830078 
M975.500610,114.040764 
	C970.004089,114.200699 964.505371,114.306564 959.011414,114.529984 
	C935.686462,115.478523 912.413025,115.446037 889.199158,112.310768 
	C875.452942,110.454201 861.704529,110.248230 848.052185,113.776878 
	C823.473633,120.129555 802.597351,133.225647 783.470703,149.295441 
	C762.864563,166.608292 741.519592,182.493362 716.134888,192.428528 
	C710.169373,194.763321 704.878296,199.409988 700.019043,203.812241 
	C695.416382,207.982132 695.439148,213.549362 698.827881,217.172974 
	C702.209534,220.788971 706.702698,220.737717 711.931519,217.338196 
	C716.662781,214.262161 721.258667,210.695724 726.426392,208.621780 
	C750.205444,199.078873 770.726135,184.441940 790.616211,168.711746 
	C805.768311,156.728622 821.101379,145.040451 839.153992,137.523254 
	C850.567993,132.770401 862.244812,130.409592 874.661682,131.671356 
	C887.566223,132.982712 900.506287,134.775681 913.437561,134.832581 
	C947.755676,134.983627 982.080200,134.468521 1016.396301,133.880203 
	C1027.968628,133.681824 1038.693726,130.003860 1047.722656,122.522209 
	C1054.000000,117.320526 1059.839844,111.594711 1065.985962,106.229942 
	C1076.966553,96.645409 1089.428467,94.728340 1102.687744,100.351051 
	C1110.924194,103.843811 1118.892578,108.069252 1126.683350,112.490860 
	C1141.240967,120.752945 1156.275024,127.798248 1172.937744,130.307526 
	C1188.408569,132.637299 1201.976562,138.483521 1214.754517,147.671631 
	C1232.551025,160.468369 1252.133301,161.193726 1272.020508,152.191971 
	C1279.586060,148.767548 1286.892334,144.753723 1294.530396,141.511810 
	C1299.378174,139.454193 1304.533203,137.886414 1309.702026,136.867188 
	C1321.291992,134.581772 1329.434692,138.119644 1335.391846,148.399048 
	C1341.051636,158.165405 1345.725342,168.504868 1351.425781,178.245255 
	C1354.411621,183.347382 1358.308350,188.061691 1362.472168,192.281830 
	C1365.624390,195.476608 1369.976562,195.902252 1373.821533,192.747665 
	C1377.611206,189.638458 1377.769775,185.688629 1375.929321,181.456711 
	C1375.598999,180.696762 1375.125244,180.000351 1374.765747,179.251617 
	C1371.109497,171.638428 1367.452026,164.025726 1363.817261,156.402283 
	C1360.389526,149.213211 1357.693481,141.560974 1353.438232,134.903259 
	C1342.641846,118.010902 1326.832397,111.720963 1307.066772,114.697189 
	C1294.140991,116.643486 1282.900024,122.668983 1271.346924,128.212830 
	C1264.400635,131.546112 1256.959595,134.454010 1249.426758,135.815933 
	C1238.374268,137.814163 1229.037964,132.328918 1220.472534,125.972504 
	C1210.118774,118.288818 1198.689209,113.078468 1185.984497,111.184471 
	C1167.290405,108.397621 1150.127319,101.719147 1133.750366,92.486473 
	C1126.098511,88.172668 1118.187866,84.183739 1110.056030,80.880760 
	C1087.587524,71.754494 1067.421387,75.736542 1049.862549,92.562820 
	C1045.412598,96.827095 1041.030518,101.170036 1036.433716,105.270927 
	C1031.057861,110.066750 1024.686646,112.870255 1017.447754,113.097755 
	C1003.802307,113.526604 990.149902,113.732750 975.500610,114.040764 
M1841.498901,711.735535 
	C1840.698608,702.662964 1839.220825,693.589355 1839.235474,684.518127 
	C1839.268188,664.154358 1837.868652,643.987549 1834.251709,623.930054 
	C1830.569824,603.513672 1821.093506,586.158569 1807.761963,570.550842 
	C1799.772583,561.197205 1792.202271,551.483459 1784.513794,541.875549 
	C1780.775635,537.204163 1776.646606,535.738281 1772.414062,537.839905 
	C1768.235352,539.914795 1766.382324,544.442322 1768.242920,549.867615 
	C1769.574463,553.750305 1771.307251,557.693054 1773.734619,560.959961 
	C1778.391602,567.227722 1783.394043,573.293213 1788.743408,578.981506 
	C1802.410034,593.514038 1812.559814,609.817322 1814.693115,630.056885 
	C1816.174805,644.112366 1817.270264,658.226318 1817.969604,672.342285 
	C1819.029297,693.728149 1817.643921,715.504456 1828.070190,735.299927 
	C1835.578979,749.556213 1834.963013,763.582886 1828.419067,777.888123 
	C1819.645386,797.067688 1811.170044,816.383911 1802.368774,835.550598 
	C1792.671631,856.668823 1788.581299,878.767883 1792.636841,901.648682 
	C1796.513550,923.519958 1801.578979,945.199829 1806.737915,966.816772 
	C1809.567261,978.672241 1809.903687,990.028992 1805.485840,1001.532532 
	C1802.930908,1008.185059 1800.596069,1014.998474 1799.011230,1021.933533 
	C1793.081299,1047.883789 1784.162720,1072.419922 1769.350586,1094.879028 
	C1760.207886,1108.741333 1757.187134,1124.915405 1756.984131,1141.540894 
	C1756.811279,1155.691895 1756.369141,1169.839722 1756.075806,1183.989502 
	C1755.999878,1187.651245 1755.774414,1191.337769 1756.085205,1194.972900 
	C1756.484497,1199.644287 1758.652222,1203.235840 1763.689819,1204.216309 
	C1768.526978,1205.157471 1771.795288,1202.699463 1773.845215,1198.743408 
	C1775.272827,1195.988281 1776.588257,1192.908325 1776.868530,1189.873169 
	C1777.876587,1178.958496 1778.769531,1168.010742 1779.074219,1157.057983 
	C1779.733765,1133.349976 1784.852905,1111.228027 1797.689453,1090.732300 
	C1804.305420,1080.168701 1808.913208,1068.148193 1813.101562,1056.316162 
	C1817.799805,1043.044556 1820.537964,1029.090210 1824.952881,1015.704651 
	C1832.796265,991.924500 1832.749878,968.504333 1824.444702,944.832886 
	C1818.363892,927.501465 1815.739868,909.347717 1814.168701,891.115051 
	C1812.511841,871.889038 1817.432617,853.898621 1825.504761,836.590515 
	C1833.226929,820.033325 1841.055908,803.514465 1848.269287,786.734314 
	C1857.162842,766.045410 1856.529419,745.362976 1846.754272,724.974976 
	C1844.823120,720.947388 1843.432495,716.660706 1841.498901,711.735535 
M871.264893,1712.705078 
	C876.946838,1708.087891 882.161133,1702.682007 888.390503,1698.988037 
	C917.525513,1681.710571 948.025085,1667.296875 980.348450,1656.913330 
	C1013.348694,1646.312378 1047.019775,1638.497803 1080.918091,1631.321167 
	C1141.047485,1618.591187 1201.632202,1612.258423 1263.053101,1616.156006 
	C1279.430786,1617.195190 1296.081299,1617.734253 1311.620850,1624.190063 
	C1314.969849,1625.581421 1318.044189,1627.622803 1321.287231,1629.282593 
	C1326.208496,1631.801758 1331.483887,1630.917480 1334.430176,1627.159668 
	C1337.396851,1623.375977 1336.983765,1618.026611 1332.867676,1614.111938 
	C1330.126465,1611.505005 1327.093262,1608.734619 1323.661133,1607.415405 
	C1314.390625,1603.851929 1305.049072,1599.828369 1295.359375,1598.111084 
	C1251.017090,1590.252075 1206.408447,1591.045776 1161.986694,1597.080933 
	C1101.258057,1605.331421 1040.727173,1615.050781 982.235291,1634.100098 
	C930.376160,1650.989380 880.260803,1671.247925 840.521667,1710.868774 
	C830.423889,1720.936768 818.884338,1729.607544 807.671997,1738.497559 
	C789.937195,1752.559448 772.019958,1766.397217 753.982605,1780.069580 
	C743.726807,1787.843384 739.331482,1799.191162 734.536377,1810.312256 
	C732.839966,1814.246704 734.313293,1817.963867 737.907715,1820.360474 
	C741.543213,1822.784668 745.312317,1822.302734 748.483276,1819.456543 
	C750.308472,1817.818359 751.935669,1815.777588 753.104553,1813.621460 
	C758.402283,1803.848877 766.596497,1796.949829 775.032227,1790.033936 
	C800.011780,1769.554932 828.305420,1753.380859 851.665588,1730.812256 
	C857.891357,1724.797241 864.353699,1719.027100 871.264893,1712.705078 
M1223.723022,996.614624 
	C1222.582764,1005.951050 1222.263062,1015.478577 1220.141724,1024.586426 
	C1214.729004,1047.826294 1204.989136,1069.486084 1194.200317,1090.680420 
	C1181.677124,1115.281372 1162.866821,1133.175659 1137.151855,1143.390015 
	C1109.417358,1154.406616 1080.937988,1162.980469 1051.260742,1166.791870 
	C1043.912231,1167.735596 1036.244019,1167.360474 1028.848145,1166.506226 
	C1016.248840,1165.051392 1006.355774,1158.294312 998.249512,1148.748657 
	C995.429810,1145.428223 992.071472,1143.666016 987.763245,1145.865723 
	C983.633057,1147.974487 982.303528,1152.037354 983.626404,1157.381348 
	C987.562988,1173.284912 998.724548,1181.742920 1013.620789,1185.932373 
	C1030.466309,1190.669922 1047.603882,1189.058838 1064.305542,1185.712280 
	C1092.048706,1180.153198 1119.264282,1172.421387 1145.653198,1162.020508 
	C1169.983643,1152.430786 1190.356689,1137.698364 1205.363892,1116.042847 
	C1216.347290,1100.194092 1223.452271,1082.410522 1230.636597,1064.679565 
	C1242.036865,1036.543579 1248.954712,1007.733582 1242.970703,977.187195 
	C1237.813110,950.859558 1224.235596,930.102051 1201.110962,916.075500 
	C1179.194458,902.781677 1154.943237,900.905396 1130.533447,904.431641 
	C1111.572510,907.170776 1092.946411,912.446472 1074.316284,917.166138 
	C1064.966187,919.534851 1056.439575,923.928040 1049.898804,931.530762 
	C1046.128174,935.913391 1044.335693,940.758240 1044.729736,946.490295 
	C1045.044556,951.072266 1047.513916,954.068542 1051.868530,954.836609 
	C1055.823608,955.534119 1059.300903,953.624634 1060.862183,949.977539 
	C1064.069824,942.484802 1070.384644,939.292847 1077.469238,937.046692 
	C1084.820312,934.716064 1092.179688,932.365662 1099.644897,930.450623 
	C1122.149292,924.677490 1144.901978,920.008667 1168.207764,924.108215 
	C1193.206421,928.505615 1210.463013,943.152832 1218.712524,967.082336 
	C1221.829590,976.123535 1222.067505,986.157349 1223.723022,996.614624 
M924.092346,579.733276 
	C924.554871,582.648743 925.068604,585.557190 925.466309,588.481445 
	C925.920715,591.822571 927.253540,595.421021 926.494568,598.483948 
	C923.486755,610.622192 920.477051,622.834900 916.246704,634.580139 
	C906.676025,661.152527 891.881836,685.163147 878.081238,709.642761 
	C868.932556,725.870667 858.273438,741.274963 852.448792,759.286621 
	C847.081055,775.885681 842.185303,792.458313 843.008484,810.182190 
	C843.534363,821.507446 850.014465,829.692993 861.127502,831.984192 
	C871.182922,834.057312 881.183105,833.412842 891.173035,830.884033 
	C895.931396,829.679504 900.949829,829.505127 905.848999,828.852844 
	C909.941223,828.308105 911.812805,830.582275 913.046570,834.118896 
	C916.718323,844.643372 914.672546,854.974731 912.484680,865.400208 
	C908.976135,882.119568 902.390930,898.160461 903.768433,915.932861 
	C904.899048,930.519775 916.047180,936.036865 927.199707,934.490417 
	C936.982910,933.133911 945.675110,929.310669 953.537415,923.649902 
	C962.411438,917.260620 971.091125,910.583313 979.605225,903.721008 
	C983.009583,900.977112 983.733948,896.931213 981.606079,892.931458 
	C979.724670,889.395142 976.226929,888.107605 972.672241,889.196228 
	C969.791870,890.078308 967.286865,892.257690 964.686646,893.969971 
	C955.715332,899.878174 946.940918,906.110535 937.734314,911.622925 
	C934.467590,913.578796 930.177979,913.826050 925.547180,915.070618 
	C925.889404,910.406250 925.689148,907.024902 926.449829,903.875671 
	C929.041199,893.148071 932.160339,882.547485 934.726746,871.814392 
	C938.352478,856.651428 940.070068,841.459351 933.939270,826.410706 
	C930.017944,816.785217 923.424622,809.556641 912.840698,809.297791 
	C903.911804,809.079407 894.929382,811.568298 885.950012,812.694031 
	C880.802307,813.339355 875.596802,814.159973 870.447266,813.990723 
	C864.275024,813.787842 863.461243,812.127014 864.098389,806.178528 
	C865.982239,788.592712 870.480774,771.552979 878.029236,755.747070 
	C886.772400,737.439697 897.159180,719.906372 907.072327,702.171082 
	C923.429626,672.906921 939.356201,643.525696 946.483032,610.260437 
	C948.738525,599.732361 949.904480,589.376709 948.008240,578.742859 
	C946.702087,571.418091 941.960388,566.293823 936.076050,566.021667 
	C930.323181,565.755615 926.370178,569.610901 924.416748,577.404785 
	C924.295776,577.887512 924.237366,578.385986 924.092346,579.733276 
M1528.965698,1526.052612 
	C1526.096558,1544.887085 1514.983521,1557.486084 1498.622437,1566.080811 
	C1495.541382,1567.699219 1492.227173,1568.908203 1489.262939,1570.705811 
	C1485.767456,1572.825195 1483.626587,1576.025269 1484.497437,1580.329834 
	C1485.447632,1585.026733 1488.839722,1587.394653 1493.335938,1587.842529 
	C1496.272705,1588.134888 1499.435181,1588.155762 1502.247681,1587.387451 
	C1528.826660,1580.126343 1542.955933,1560.755249 1549.617920,1535.706177 
	C1552.338501,1525.476929 1551.391602,1514.226318 1551.758179,1503.428345 
	C1552.250122,1488.937134 1557.630249,1476.365479 1567.416992,1466.090698 
	C1587.635986,1444.863647 1608.449951,1424.204468 1628.869751,1403.166626 
	C1638.714355,1393.024048 1648.662720,1382.925659 1657.767090,1372.134888 
	C1668.924927,1358.910034 1679.223877,1344.962158 1689.940063,1331.362915 
	C1698.241821,1320.827759 1705.360596,1309.685303 1708.419312,1296.388062 
	C1710.643677,1286.718018 1712.104248,1276.865479 1718.908813,1268.792480 
	C1721.385742,1265.853760 1720.777344,1261.777100 1717.941895,1258.694458 
	C1715.124512,1255.631348 1711.117432,1254.614136 1707.974487,1256.776367 
	C1703.593872,1259.790405 1699.294800,1263.524170 1696.382202,1267.896729 
	C1693.620850,1272.042114 1692.182617,1277.291626 1691.049927,1282.258057 
	C1687.370239,1298.391235 1679.773438,1312.223633 1668.650146,1324.454102 
	C1660.369385,1333.559326 1653.008789,1343.494263 1644.964478,1352.823486 
	C1635.195679,1364.152954 1625.523682,1375.606689 1615.124634,1386.343018 
	C1595.192749,1406.921631 1574.697510,1426.953491 1554.591675,1447.365601 
	C1542.460205,1459.681885 1532.942261,1473.769775 1530.653198,1491.270264 
	C1529.192383,1502.438721 1529.488037,1513.836914 1528.965698,1526.052612 
M1258.021606,1473.437378 
	C1264.298096,1488.080933 1270.075195,1502.975952 1280.277466,1515.560425 
	C1286.273071,1522.956055 1293.697632,1527.919800 1303.212524,1529.226196 
	C1308.615723,1529.968140 1312.296143,1527.812012 1313.603638,1523.771973 
	C1314.781128,1520.133545 1312.411621,1517.208618 1307.684082,1514.125244 
	C1303.488037,1511.388916 1299.100830,1508.208618 1296.314697,1504.176270 
	C1284.478882,1487.046509 1278.379883,1467.229614 1271.238403,1447.940186 
	C1264.737183,1430.380127 1258.613281,1412.679321 1252.006592,1395.159790 
	C1248.993408,1387.169678 1243.513550,1381.424683 1234.779663,1379.262207 
	C1232.617188,1378.726807 1230.612061,1377.292236 1228.711670,1376.008911 
	C1220.776611,1370.650391 1215.159790,1363.111084 1211.054321,1354.759033 
	C1195.679810,1323.482666 1191.651245,1290.328613 1196.388184,1256.057495 
	C1197.321655,1249.304321 1198.465210,1241.952759 1204.995728,1237.652222 
	C1208.009888,1235.667236 1211.429077,1234.283936 1214.707397,1232.717651 
	C1218.612793,1230.851807 1220.658569,1227.891235 1219.950684,1223.529663 
	C1219.244873,1219.180908 1215.712646,1217.740601 1212.052368,1217.014404 
	C1210.001099,1216.607544 1207.659912,1216.743896 1205.630005,1217.297607 
	C1193.427734,1220.626953 1184.606323,1227.918823 1180.815308,1240.225220 
	C1175.639282,1257.027954 1174.161621,1274.145264 1175.698975,1291.778320 
	C1177.422241,1311.539795 1180.354004,1330.825317 1187.793213,1349.386353 
	C1195.657349,1369.007446 1208.372803,1383.884155 1227.108643,1393.838867 
	C1229.709961,1395.220825 1231.685181,1398.839966 1232.770386,1401.848999 
	C1241.267700,1425.411865 1249.477051,1449.078369 1258.021606,1473.437378 
M638.549683,623.159607 
	C607.343628,631.720764 583.655640,650.444885 566.343872,677.368103 
	C559.023315,688.753174 554.576050,701.273315 555.878601,715.214172 
	C557.229858,729.676636 567.097290,740.247803 581.434082,742.568542 
	C601.963989,745.891785 626.776550,728.577637 630.742676,708.161194 
	C633.180725,695.611084 626.142761,685.157349 613.495972,683.727966 
	C608.515442,683.165100 603.215515,684.061462 598.243225,685.136169 
	C591.956055,686.495056 588.859558,691.106812 589.845459,696.194397 
	C590.826782,701.258240 595.303223,703.809448 601.893372,703.146851 
	C604.943481,702.840149 608.007446,702.671936 611.681702,702.394348 
	C611.260315,704.569885 611.272461,705.949219 610.733521,707.061523 
	C606.375854,716.056396 599.255005,721.675171 589.428223,723.458374 
	C581.212524,724.949219 575.514038,720.588928 576.307007,712.244080 
	C576.950134,705.476562 578.758911,698.316040 581.991333,692.388062 
	C594.087830,670.204529 612.546265,654.749878 635.975708,645.566101 
	C656.240051,637.622925 674.560547,640.581299 689.766296,657.137085 
	C690.660645,658.110840 691.664551,659.051270 692.781921,659.740662 
	C696.379517,661.960205 700.095215,662.187561 703.471619,659.417725 
	C706.854187,656.642822 707.457153,652.913818 705.800354,649.015076 
	C704.971313,647.064331 703.617676,645.272888 702.239441,643.628906 
	C685.567810,623.742432 664.314087,617.727051 638.549683,623.159607 
M817.865784,1918.411499 
	C802.657898,1933.537964 787.423889,1948.638550 772.277527,1963.826538 
	C770.534607,1965.574219 769.140991,1967.722412 767.826538,1969.834961 
	C764.844421,1974.627441 765.343323,1979.466919 768.954224,1982.494141 
	C772.532043,1985.493530 777.522461,1985.063721 781.615662,1981.342896 
	C782.721802,1980.337402 783.724304,1979.213257 784.732544,1978.105469 
	C804.969543,1955.869873 826.908691,1935.563354 851.663147,1918.367310 
	C860.271423,1912.387329 868.481873,1905.837280 876.929626,1899.623169 
	C906.444458,1877.913086 936.255493,1856.668579 969.664917,1841.127441 
	C970.864380,1840.569336 972.027954,1839.876709 973.087158,1839.084839 
	C977.079712,1836.100464 978.390991,1831.687256 976.570618,1827.650635 
	C974.755432,1823.625366 970.568787,1821.684692 965.688660,1822.800415 
	C963.925537,1823.203613 962.161377,1823.842773 960.563110,1824.687134 
	C950.712830,1829.890015 940.370789,1834.383789 931.185364,1840.584595 
	C893.401367,1866.090942 855.973938,1892.125244 817.865784,1918.411499 
M1259.094604,1744.978027 
	C1221.199829,1747.187744 1184.004150,1753.333374 1147.764404,1764.816406 
	C1145.879272,1765.413696 1143.922607,1766.112915 1142.328491,1767.233154 
	C1139.044678,1769.541138 1137.591431,1772.818359 1138.766602,1776.824829 
	C1139.930908,1780.794312 1142.804565,1783.059326 1146.861694,1783.028687 
	C1149.802734,1783.006470 1152.755615,1782.187378 1155.671387,1781.572510 
	C1173.744263,1777.761841 1191.687012,1773.151367 1209.901855,1770.237061 
	C1241.519653,1765.177979 1273.485596,1763.690308 1305.484741,1763.151978 
	C1313.002563,1763.025635 1317.390869,1759.598267 1317.544434,1753.985596 
	C1317.699341,1748.331787 1313.401367,1744.718384 1305.959717,1744.255249 
	C1305.295044,1744.213745 1304.627197,1744.195068 1303.961304,1744.206177 
	C1289.315063,1744.449707 1274.668823,1744.699097 1259.094604,1744.978027 
z"/>
<path fill="#02C6FC" opacity="1.000000" stroke="none" 
	d="
M598.468506,2050.000000 
	C595.680542,2042.436157 592.708313,2035.003174 591.160706,2027.284546 
	C585.963806,2001.364502 589.338745,1976.022461 597.388123,1951.108765 
	C607.427063,1920.036743 621.813232,1890.836426 636.082031,1861.603027 
	C638.600708,1856.442993 642.354553,1851.807617 645.988342,1847.292358 
	C649.465515,1842.971924 654.111694,1840.457764 659.968384,1841.028320 
	C664.978088,1841.516357 669.706970,1845.017212 669.893433,1849.958252 
	C670.114746,1855.822021 669.713135,1861.946289 668.177979,1867.575073 
	C666.521545,1873.648315 661.440247,1875.054688 654.085266,1872.667236 
	C653.753418,1873.037354 653.207520,1873.431641 652.949219,1873.965088 
	C638.116028,1904.589844 622.945557,1935.138184 613.694641,1968.019653 
	C605.962708,1995.502075 606.307922,2022.884155 618.950073,2049.634766 
	C612.312378,2050.000000 605.624695,2050.000000 598.468506,2050.000000 
z"/>
<path fill="#FC1E02" opacity="1.000000" stroke="none" 
	d="
M249.937439,1032.184570 
	C253.648041,1031.825195 257.358612,1031.465820 261.503845,1031.664062 
	C262.862061,1036.046509 263.785645,1039.871460 264.709229,1043.696289 
	C263.004486,1045.268921 261.467072,1047.088867 259.567871,1048.374146 
	C247.624969,1056.456665 241.989594,1067.972412 240.945297,1082.040771 
	C240.144531,1092.828369 239.783966,1103.665039 238.531860,1114.398682 
	C236.489563,1131.906128 227.229736,1146.112793 216.718994,1159.654541 
	C207.941116,1170.963989 198.645081,1182.097046 194.141861,1195.930420 
	C184.456390,1225.682983 191.310822,1252.421509 210.621414,1276.213257 
	C225.536896,1294.589722 244.572632,1308.589355 262.730988,1323.472656 
	C293.529083,1348.715942 324.827179,1373.271484 359.671112,1392.865234 
	C379.972076,1404.280884 400.199768,1415.830688 420.618469,1427.031982 
	C450.296173,1443.312256 475.963562,1464.403564 498.462585,1489.660278 
	C521.789612,1515.846680 544.100769,1542.797363 560.408142,1573.993530 
	C578.900635,1609.369751 596.819824,1645.057861 614.313293,1680.939453 
	C623.917542,1700.639404 626.794922,1722.100708 628.131653,1743.869507 
	C628.922913,1756.755737 630.095215,1769.834351 633.220581,1782.293701 
	C635.762451,1792.426758 641.216370,1801.888184 645.863098,1811.411255 
	C648.444641,1816.702026 648.602356,1821.000610 644.957153,1824.087158 
	C641.275024,1827.204956 636.542297,1826.348145 631.975464,1822.456665 
	C615.341553,1808.282593 609.743042,1788.991699 607.150391,1768.511475 
	C605.542786,1755.812378 605.113464,1742.967651 603.982422,1730.203613 
	C602.630798,1714.950439 598.312256,1700.458618 591.357239,1686.888306 
	C572.544006,1650.181030 553.795349,1613.433960 534.387817,1577.040283 
	C518.261719,1546.800293 495.226654,1521.701416 472.481171,1496.408081 
	C449.349609,1470.685303 420.611694,1452.911743 390.670441,1436.560669 
	C353.992859,1416.530762 317.508453,1396.078613 284.956238,1369.587402 
	C260.286957,1349.511108 235.856873,1329.116699 211.879837,1308.221802 
	C192.266403,1291.129639 178.277069,1270.112549 172.171051,1244.409912 
	C164.919617,1213.885742 171.882507,1186.450439 190.266663,1161.526855 
	C196.098007,1153.620972 202.070404,1145.818970 207.869217,1137.889648 
	C216.098145,1126.637329 219.474808,1113.863525 220.137360,1100.052856 
	C220.606476,1090.274048 221.318787,1080.415771 223.101868,1070.812012 
	C225.914505,1055.662842 233.674454,1043.303101 247.108429,1034.184692 
	C248.291245,1033.213989 249.114334,1032.699219 249.937439,1032.184570 
z"/>
<path fill="#FC7902" opacity="1.000000" stroke="none" 
	d="
M1344.937866,104.905136 
	C1326.456177,99.142830 1307.767578,94.173317 1288.189209,96.097282 
	C1275.640503,97.330452 1263.217041,99.794334 1250.710693,101.512802 
	C1226.159546,104.886353 1202.189453,103.716316 1181.652466,88.008034 
	C1173.323364,81.637321 1166.513184,73.159592 1159.541992,65.177505 
	C1154.967407,59.939259 1151.481812,53.766167 1147.264038,48.196796 
	C1137.640991,35.489990 1129.061035,32.722549 1114.241821,38.922760 
	C1101.846069,44.108990 1090.073608,50.763657 1077.821777,56.319592 
	C1057.111450,65.711212 1036.454224,75.275543 1015.387817,83.812843 
	C982.835815,97.004738 950.013367,94.735962 917.393494,83.487915 
	C906.576416,79.757919 896.047302,74.921104 884.988342,72.221283 
	C862.884949,66.825134 842.169189,72.351624 822.568848,82.835930 
	C807.560608,90.863907 796.657349,103.490685 785.613708,116.023895 
	C777.697083,125.008217 769.589600,133.908035 760.810913,142.027908 
	C749.678650,152.324829 736.251831,159.401047 721.844177,163.693085 
	C694.333679,171.888504 670.652161,186.645126 648.826904,204.633255 
	C638.340027,213.276459 628.090637,222.428314 619.007935,232.499008 
	C607.595886,245.152359 605.377991,261.135193 607.386963,277.520355 
	C610.180115,300.301392 616.863831,321.964935 627.868286,342.204468 
	C628.502991,343.371857 629.182739,344.543396 629.604004,345.793091 
	C631.050293,350.083252 630.851440,354.160828 626.845154,356.989929 
	C622.898682,359.776825 618.654663,359.268829 615.484741,355.922668 
	C612.091980,352.341339 608.663269,348.444000 606.551331,344.058044 
	C595.230774,320.548096 586.925903,296.041199 585.492065,269.766418 
	C584.266052,247.300827 591.453491,227.394821 608.008606,212.138855 
	C633.522827,188.626892 661.067078,167.699997 692.538696,152.526230 
	C697.610535,150.080887 702.891479,147.918060 708.279724,146.306290 
	C732.941956,138.929016 752.082214,124.109550 768.216614,104.325371 
	C777.008911,93.544174 787.093750,83.654274 797.559570,74.459633 
	C804.195923,68.629234 812.226196,63.985996 820.309692,60.296429 
	C832.263184,54.840488 844.819519,50.705120 857.378601,46.583130 
	C855.632935,47.486515 853.887329,48.389900 852.141724,49.293285 
	C852.224426,49.576488 852.307129,49.859692 852.389832,50.142895 
	C856.096436,49.778572 859.796753,49.325127 863.510681,49.065228 
	C880.357422,47.886299 896.167358,52.101360 911.473450,58.601009 
	C932.894714,67.697388 955.070007,73.527290 978.414490,70.795807 
	C988.796631,69.581024 999.288818,66.498344 1008.944031,62.406334 
	C1037.831055,50.163567 1066.254517,36.831562 1095.025269,24.306946 
	C1103.641113,20.556259 1112.607544,17.137707 1121.758911,15.196054 
	C1137.110107,11.938975 1150.001709,17.902124 1160.164795,29.270048 
	C1165.905884,35.691784 1170.959106,42.808060 1175.720947,50.009075 
	C1185.487183,64.777779 1197.962891,75.669922 1215.818726,78.911118 
	C1229.040405,81.311134 1242.308105,80.302650 1255.594360,78.626846 
	C1270.414307,76.757576 1285.284058,74.695724 1300.182617,74.183449 
	C1319.437866,73.521370 1336.746826,81.602417 1354.059204,88.867203 
	C1357.967285,90.507103 1359.636719,93.932800 1359.051758,98.497833 
	C1351.854370,96.861900 1348.047974,98.554138 1344.937866,104.905136 
z"/>
<path fill="#FC7902" opacity="1.000000" stroke="none" 
	d="
M1778.125610,1253.930908 
	C1781.667725,1243.612915 1784.130371,1232.754761 1788.968872,1223.085571 
	C1800.196167,1200.649292 1805.159546,1176.718750 1807.565430,1152.182129 
	C1808.680176,1140.812378 1808.371216,1129.170044 1807.413330,1117.759888 
	C1805.769409,1098.182129 1809.605225,1080.568848 1823.509033,1066.155151 
	C1836.669189,1052.512329 1840.774170,1036.533325 1838.498047,1018.014221 
	C1835.937622,997.180725 1839.957153,977.000549 1846.161621,957.121460 
	C1853.849854,932.488098 1854.504639,907.411987 1849.730835,882.157288 
	C1846.228027,863.627258 1848.963867,846.030396 1855.478394,828.403503 
	C1865.996460,799.943604 1876.266479,771.339172 1885.094116,742.325134 
	C1891.454712,721.419800 1891.067383,699.607788 1887.098755,678.065613 
	C1885.178955,667.644104 1879.975952,658.701965 1872.680908,651.175720 
	C1854.673218,632.597473 1846.689575,609.604431 1841.936157,584.826599 
	C1837.532593,561.873352 1832.113770,539.115845 1827.227295,516.253967 
	C1822.725098,495.190704 1809.424805,483.660950 1788.585938,479.983032 
	C1782.220215,478.859528 1775.875244,477.489288 1769.638672,475.797607 
	C1762.509399,473.863770 1760.120605,469.502258 1762.222412,462.175415 
	C1764.525024,460.382538 1766.475952,459.116699 1768.510986,458.004944 
	C1769.690552,457.360504 1771.005493,456.963776 1772.259521,456.455627 
	C1777.293213,457.646912 1782.298706,458.978302 1787.366455,460.000854 
	C1798.472412,462.241760 1809.410889,464.888733 1819.225098,470.900787 
	C1833.169556,479.442902 1841.898560,492.128082 1845.856934,507.544525 
	C1852.123047,531.948853 1857.663940,556.556641 1862.831055,581.220886 
	C1867.374146,602.906799 1874.614502,622.888489 1890.440308,639.286926 
	C1904.187622,653.531616 1909.317749,671.498047 1911.147705,690.982178 
	C1914.348755,725.064148 1905.703979,756.924011 1894.541870,788.427063 
	C1889.168945,803.591248 1884.082397,818.902466 1877.755371,833.671204 
	C1870.354858,850.945190 1869.914185,868.419495 1873.067383,886.463196 
	C1877.736328,913.180298 1875.741455,939.530396 1867.547852,965.306763 
	C1861.708008,983.678223 1859.914307,1002.296631 1861.583618,1021.440063 
	C1863.430176,1042.617432 1858.264526,1061.807861 1843.550537,1077.661133 
	C1832.854492,1089.185425 1829.040649,1102.487183 1830.554565,1118.001709 
	C1833.383789,1146.995361 1829.501099,1175.417480 1821.951050,1203.411255 
	C1821.088745,1206.608398 1819.952515,1209.752075 1818.693359,1212.817871 
	C1813.658936,1225.075562 1808.526123,1237.292725 1802.807983,1249.722656 
	C1798.610962,1249.175903 1794.789551,1247.270630 1791.519287,1247.964233 
	C1786.843262,1248.956299 1782.570557,1251.849487 1778.125610,1253.930908 
z"/>
<path fill="#02C6FC" opacity="1.000000" stroke="none" 
	d="
M249.890045,1031.809814 
	C249.114334,1032.699219 248.291245,1033.213989 247.206177,1033.862793 
	C236.632950,1033.873047 233.006454,1029.565430 235.787292,1019.388855 
	C240.766785,1001.166138 246.678146,983.193542 251.467743,964.924500 
	C257.098511,943.446960 258.677582,921.668457 248.753387,901.014343 
	C243.762939,890.628296 236.455612,881.359070 230.239166,871.557495 
	C225.084442,863.429932 219.103729,855.679626 215.044998,847.031860 
	C204.124039,823.763184 207.068817,801.319275 223.346039,781.759460 
	C231.095291,772.447449 240.648071,763.848206 251.014786,757.656921 
	C277.315643,741.949402 302.865082,725.237732 327.769836,707.425842 
	C353.574005,688.970703 382.132294,675.513184 411.145294,662.963623 
	C434.061646,653.051208 455.309204,640.544006 472.925812,622.483337 
	C494.210999,600.661560 506.332886,574.039185 514.023499,544.999878 
	C517.927002,530.260315 521.677979,515.448853 526.408081,500.967224 
	C533.417664,479.506897 546.378906,461.671112 562.276428,445.869629 
	C585.747375,422.540253 612.210571,402.863586 638.798462,383.354309 
	C644.033752,379.512787 649.472656,380.098389 652.621216,384.194733 
	C655.589539,388.056610 654.558777,393.164246 649.924805,397.392792 
	C648.942444,398.289185 647.892700,399.113861 646.851318,399.943146 
	C632.134338,411.662720 617.096680,423.006104 602.791504,435.208344 
	C590.903320,445.349030 579.403259,456.044098 568.572876,467.303192 
	C550.549927,486.039551 542.634338,509.853088 537.030151,534.555786 
	C531.684631,558.118103 524.781921,581.114929 512.861450,602.299866 
	C492.995544,637.605347 463.191650,661.657776 426.663269,678.037842 
	C399.233521,690.337891 371.551453,702.173157 346.502533,719.095032 
	C328.172272,731.478088 310.146332,744.316345 291.697876,756.518005 
	C280.756958,763.754333 268.882996,769.609741 258.141541,777.107544 
	C250.742722,782.272034 243.689194,788.478149 238.030930,795.472351 
	C227.216064,808.840637 225.722107,824.172180 234.021912,839.301453 
	C239.507767,849.301331 246.403427,858.584656 253.202332,867.794250 
	C264.321075,882.855408 272.896362,898.918335 275.570953,917.722778 
	C278.074921,935.327759 276.386475,952.682800 271.366425,969.549133 
	C265.742462,988.444580 259.161987,1007.056580 252.896469,1025.758057 
	C252.223755,1027.765991 250.876846,1029.548096 249.890045,1031.809814 
z"/>
<path fill="#023FFC" opacity="1.000000" stroke="none" 
	d="
M976.000488,114.036118 
	C990.149902,113.732750 1003.802307,113.526604 1017.447754,113.097755 
	C1024.686646,112.870255 1031.057861,110.066750 1036.433716,105.270927 
	C1041.030518,101.170036 1045.412598,96.827095 1049.862549,92.562820 
	C1067.421387,75.736542 1087.587524,71.754494 1110.056030,80.880760 
	C1118.187866,84.183739 1126.098511,88.172668 1133.750366,92.486473 
	C1150.127319,101.719147 1167.290405,108.397621 1185.984497,111.184471 
	C1198.689209,113.078468 1210.118774,118.288818 1220.472534,125.972504 
	C1229.037964,132.328918 1238.374268,137.814163 1249.426758,135.815933 
	C1256.959595,134.454010 1264.400635,131.546112 1271.346924,128.212830 
	C1282.900024,122.668983 1294.140991,116.643486 1307.066772,114.697189 
	C1326.832397,111.720963 1342.641846,118.010902 1353.438232,134.903259 
	C1357.693481,141.560974 1360.389526,149.213211 1363.817261,156.402283 
	C1367.452026,164.025726 1371.109497,171.638428 1374.765747,179.251617 
	C1375.125244,180.000351 1375.598999,180.696762 1375.929321,181.456711 
	C1377.769775,185.688629 1377.611206,189.638458 1373.821533,192.747665 
	C1369.976562,195.902252 1365.624390,195.476608 1362.472168,192.281830 
	C1358.308350,188.061691 1354.411621,183.347382 1351.425781,178.245255 
	C1345.725342,168.504868 1341.051636,158.165405 1335.391846,148.399048 
	C1329.434692,138.119644 1321.291992,134.581772 1309.702026,136.867188 
	C1304.533203,137.886414 1299.378174,139.454193 1294.530396,141.511810 
	C1286.892334,144.753723 1279.586060,148.767548 1272.020508,152.191971 
	C1252.133301,161.193726 1232.551025,160.468369 1214.754517,147.671631 
	C1201.976562,138.483521 1188.408569,132.637299 1172.937744,130.307526 
	C1156.275024,127.798248 1141.240967,120.752945 1126.683350,112.490860 
	C1118.892578,108.069252 1110.924194,103.843811 1102.687744,100.351051 
	C1089.428467,94.728340 1076.966553,96.645409 1065.985962,106.229942 
	C1059.839844,111.594711 1054.000000,117.320526 1047.722656,122.522209 
	C1038.693726,130.003860 1027.968628,133.681824 1016.396301,133.880203 
	C982.080200,134.468521 947.755676,134.983627 913.437561,134.832581 
	C900.506287,134.775681 887.566223,132.982712 874.661682,131.671356 
	C862.244812,130.409592 850.567993,132.770401 839.153992,137.523254 
	C821.101379,145.040451 805.768311,156.728622 790.616211,168.711746 
	C770.726135,184.441940 750.205444,199.078873 726.426392,208.621780 
	C721.258667,210.695724 716.662781,214.262161 711.931519,217.338196 
	C706.702698,220.737717 702.209534,220.788971 698.827881,217.172974 
	C695.439148,213.549362 695.416382,207.982132 700.019043,203.812241 
	C704.878296,199.409988 710.169373,194.763321 716.134888,192.428528 
	C741.519592,182.493362 762.864563,166.608292 783.470703,149.295441 
	C802.597351,133.225647 823.473633,120.129555 848.052185,113.776878 
	C861.704529,110.248230 875.452942,110.454201 889.199158,112.310768 
	C912.413025,115.446037 935.686462,115.478523 959.011414,114.529984 
	C964.505371,114.306564 970.004089,114.200699 976.000488,114.036118 
z"/>
<path fill="#023FFC" opacity="1.000000" stroke="none" 
	d="
M1841.645752,712.114502 
	C1843.432495,716.660706 1844.823120,720.947388 1846.754272,724.974976 
	C1856.529419,745.362976 1857.162842,766.045410 1848.269287,786.734314 
	C1841.055908,803.514465 1833.226929,820.033325 1825.504761,836.590515 
	C1817.432617,853.898621 1812.511841,871.889038 1814.168701,891.115051 
	C1815.739868,909.347717 1818.363892,927.501465 1824.444702,944.832886 
	C1832.749878,968.504333 1832.796265,991.924500 1824.952881,1015.704651 
	C1820.537964,1029.090210 1817.799805,1043.044556 1813.101562,1056.316162 
	C1808.913208,1068.148193 1804.305420,1080.168701 1797.689453,1090.732300 
	C1784.852905,1111.228027 1779.733765,1133.349976 1779.074219,1157.057983 
	C1778.769531,1168.010742 1777.876587,1178.958496 1776.868530,1189.873169 
	C1776.588257,1192.908325 1775.272827,1195.988281 1773.845215,1198.743408 
	C1771.795288,1202.699463 1768.526978,1205.157471 1763.689819,1204.216309 
	C1758.652222,1203.235840 1756.484497,1199.644287 1756.085205,1194.972900 
	C1755.774414,1191.337769 1755.999878,1187.651245 1756.075806,1183.989502 
	C1756.369141,1169.839722 1756.811279,1155.691895 1756.984131,1141.540894 
	C1757.187134,1124.915405 1760.207886,1108.741333 1769.350586,1094.879028 
	C1784.162720,1072.419922 1793.081299,1047.883789 1799.011230,1021.933533 
	C1800.596069,1014.998474 1802.930908,1008.185059 1805.485840,1001.532532 
	C1809.903687,990.028992 1809.567261,978.672241 1806.737915,966.816772 
	C1801.578979,945.199829 1796.513550,923.519958 1792.636841,901.648682 
	C1788.581299,878.767883 1792.671631,856.668823 1802.368774,835.550598 
	C1811.170044,816.383911 1819.645386,797.067688 1828.419067,777.888123 
	C1834.963013,763.582886 1835.578979,749.556213 1828.070190,735.299927 
	C1817.643921,715.504456 1819.029297,693.728149 1817.969604,672.342285 
	C1817.270264,658.226318 1816.174805,644.112366 1814.693115,630.056885 
	C1812.559814,609.817322 1802.410034,593.514038 1788.743408,578.981506 
	C1783.394043,573.293213 1778.391602,567.227722 1773.734619,560.959961 
	C1771.307251,557.693054 1769.574463,553.750305 1768.242920,549.867615 
	C1766.382324,544.442322 1768.235352,539.914795 1772.414062,537.839905 
	C1776.646606,535.738281 1780.775635,537.204163 1784.513794,541.875549 
	C1792.202271,551.483459 1799.772583,561.197205 1807.761963,570.550842 
	C1821.093506,586.158569 1830.569824,603.513672 1834.251709,623.930054 
	C1837.868652,643.987549 1839.268188,664.154358 1839.235474,684.518127 
	C1839.220825,693.589355 1840.698608,702.662964 1841.645752,712.114502 
z"/>
<path fill="#FBFBFB" opacity="1.000000" stroke="none" 
	d="
M870.986206,1712.924805 
	C864.353699,1719.027100 857.891357,1724.797241 851.665588,1730.812256 
	C828.305420,1753.380859 800.011780,1769.554932 775.032227,1790.033936 
	C766.596497,1796.949829 758.402283,1803.848877 753.104553,1813.621460 
	C751.935669,1815.777588 750.308472,1817.818359 748.483276,1819.456543 
	C745.312317,1822.302734 741.543213,1822.784668 737.907715,1820.360474 
	C734.313293,1817.963867 732.839966,1814.246704 734.536377,1810.312256 
	C739.331482,1799.191162 743.726807,1787.843384 753.982605,1780.069580 
	C772.019958,1766.397217 789.937195,1752.559448 807.671997,1738.497559 
	C818.884338,1729.607544 830.423889,1720.936768 840.521667,1710.868774 
	C880.260803,1671.247925 930.376160,1650.989380 982.235291,1634.100098 
	C1040.727173,1615.050781 1101.258057,1605.331421 1161.986694,1597.080933 
	C1206.408447,1591.045776 1251.017090,1590.252075 1295.359375,1598.111084 
	C1305.049072,1599.828369 1314.390625,1603.851929 1323.661133,1607.415405 
	C1327.093262,1608.734619 1330.126465,1611.505005 1332.867676,1614.111938 
	C1336.983765,1618.026611 1337.396851,1623.375977 1334.430176,1627.159668 
	C1331.483887,1630.917480 1326.208496,1631.801758 1321.287231,1629.282593 
	C1318.044189,1627.622803 1314.969849,1625.581421 1311.620850,1624.190063 
	C1296.081299,1617.734253 1279.430786,1617.195190 1263.053101,1616.156006 
	C1201.632202,1612.258423 1141.047485,1618.591187 1080.918091,1631.321167 
	C1047.019775,1638.497803 1013.348694,1646.312378 980.348450,1656.913330 
	C948.025085,1667.296875 917.525513,1681.710571 888.390503,1698.988037 
	C882.161133,1702.682007 876.946838,1708.087891 870.986206,1712.924805 
z"/>
<path fill="#FCB502" opacity="1.000000" stroke="none" 
	d="
M1772.502441,456.035706 
	C1771.005493,456.963776 1769.690552,457.360504 1768.510986,458.004944 
	C1766.475952,459.116699 1764.525024,460.382538 1762.298096,461.739746 
	C1754.761108,458.105408 1753.455322,450.202026 1749.312622,443.459045 
	C1748.271240,441.614258 1747.655762,440.264404 1747.040283,438.914551 
	C1735.710083,410.961853 1724.701172,382.862000 1697.871948,365.156464 
	C1687.589355,358.370605 1681.186035,348.156525 1675.530029,337.464447 
	C1672.115845,331.010468 1668.664307,324.571411 1665.034424,318.237457 
	C1657.503784,305.096405 1645.707275,297.583954 1631.610718,293.055115 
	C1615.353760,287.832214 1599.308105,281.888733 1582.894775,277.229767 
	C1557.692627,270.076019 1543.308960,253.691254 1538.002319,228.402847 
	C1535.792725,217.873169 1533.338989,207.315155 1529.893677,197.143448 
	C1525.030273,182.784332 1517.684082,177.506607 1502.536499,178.244644 
	C1482.152100,179.237808 1461.959473,177.704025 1441.719604,175.978394 
	C1426.325073,174.665863 1412.726929,169.276947 1400.909058,159.264832 
	C1383.888062,144.844513 1366.778809,130.528336 1349.688477,116.190094 
	C1346.417114,113.445465 1344.531616,110.145264 1344.982300,105.327530 
	C1348.047974,98.554138 1351.854370,96.861900 1359.007080,98.868439 
	C1376.877563,113.259781 1394.626465,127.322357 1411.844727,142.007294 
	C1423.555786,151.995392 1437.153931,155.522842 1451.924805,155.956879 
	C1469.226318,156.465271 1486.535156,156.812607 1503.843384,156.975296 
	C1526.562500,157.188843 1541.975342,166.904984 1549.923218,188.270218 
	C1554.580444,200.789536 1557.562988,213.980637 1560.647705,227.023560 
	C1564.310303,242.509811 1573.719360,251.601410 1588.811646,256.112244 
	C1607.231689,261.617706 1625.434814,267.859985 1643.672119,273.961945 
	C1663.027100,280.437927 1677.364136,292.937042 1687.047607,310.846832 
	C1688.785156,314.060455 1690.696167,317.195374 1692.214478,320.509857 
	C1698.454346,334.133148 1707.653442,345.030060 1719.962769,353.786316 
	C1738.590698,367.037262 1748.752930,386.527161 1756.761108,407.247742 
	C1762.019287,420.852966 1766.970947,434.578827 1771.867920,448.319122 
	C1772.670166,450.569611 1772.477905,453.174591 1772.502441,456.035706 
z"/>
<path fill="#FCB502" opacity="1.000000" stroke="none" 
	d="
M1777.947266,1254.226440 
	C1782.570557,1251.849487 1786.843262,1248.956299 1791.519287,1247.964233 
	C1794.789551,1247.270630 1798.610962,1249.175903 1802.546509,1249.969727 
	C1804.984741,1260.397095 1804.483154,1260.654419 1795.371216,1266.073486 
	C1792.059937,1268.042847 1789.080444,1271.727783 1787.528076,1275.313354 
	C1775.556519,1302.965454 1761.500244,1329.860229 1757.020996,1360.263428 
	C1754.626099,1376.519653 1746.295166,1390.027588 1735.873169,1402.495361 
	C1717.081665,1424.975952 1693.040283,1439.859253 1666.018799,1449.778931 
	C1644.985474,1457.500244 1627.298706,1469.320679 1612.547119,1485.986328 
	C1604.822876,1494.712524 1596.598267,1502.995361 1588.855591,1511.705688 
	C1580.491821,1521.114868 1576.451294,1532.625854 1575.335083,1544.862183 
	C1573.188477,1568.397949 1563.160156,1588.763550 1551.558716,1608.717285 
	C1542.671387,1624.002930 1530.711548,1635.793457 1514.708130,1643.376709 
	C1501.662720,1649.558350 1488.739136,1656.035645 1475.459839,1661.671509 
	C1466.052002,1665.664307 1459.070679,1671.218994 1455.585938,1681.195435 
	C1454.586670,1684.056030 1451.064941,1686.035645 1448.168945,1688.342529 
	C1446.575195,1686.053833 1444.742798,1683.887207 1444.608765,1681.620239 
	C1444.323486,1676.801880 1441.753296,1673.760864 1438.326294,1671.027100 
	C1441.744751,1656.842773 1450.627930,1647.603760 1463.860474,1641.849976 
	C1476.486206,1636.360229 1488.781738,1630.114014 1501.377930,1624.552368 
	C1515.669922,1618.241943 1525.751221,1607.833130 1533.679443,1594.544067 
	C1544.736694,1576.009888 1552.396973,1556.440186 1554.720581,1534.920044 
	C1556.259399,1520.666870 1562.391357,1508.386841 1571.619263,1497.821533 
	C1588.705566,1478.259033 1605.331299,1457.896484 1627.913940,1444.374268 
	C1641.377686,1436.312134 1656.140503,1430.356323 1670.521973,1423.905396 
	C1691.040649,1414.701416 1708.822144,1402.172729 1723.299194,1384.704590 
	C1732.765625,1373.282227 1736.050171,1359.943848 1739.185425,1346.062378 
	C1741.985840,1333.664062 1745.685303,1321.379761 1750.109497,1309.461426 
	C1754.722900,1297.034058 1760.350098,1284.944458 1766.176025,1273.020996 
	C1769.353027,1266.518799 1773.861206,1260.667236 1777.947266,1254.226440 
z"/>
<path fill="#28F00D" opacity="1.000000" stroke="none" 
	d="
M1223.670410,996.176636 
	C1222.067505,986.157349 1221.829590,976.123535 1218.712524,967.082336 
	C1210.463013,943.152832 1193.206421,928.505615 1168.207764,924.108215 
	C1144.901978,920.008667 1122.149292,924.677490 1099.644897,930.450623 
	C1092.179688,932.365662 1084.820312,934.716064 1077.469238,937.046692 
	C1070.384644,939.292847 1064.069824,942.484802 1060.862183,949.977539 
	C1059.300903,953.624634 1055.823608,955.534119 1051.868530,954.836609 
	C1047.513916,954.068542 1045.044556,951.072266 1044.729736,946.490295 
	C1044.335693,940.758240 1046.128174,935.913391 1049.898804,931.530762 
	C1056.439575,923.928040 1064.966187,919.534851 1074.316284,917.166138 
	C1092.946411,912.446472 1111.572510,907.170776 1130.533447,904.431641 
	C1154.943237,900.905396 1179.194458,902.781677 1201.110962,916.075500 
	C1224.235596,930.102051 1237.813110,950.859558 1242.970703,977.187195 
	C1248.954712,1007.733582 1242.036865,1036.543579 1230.636597,1064.679565 
	C1223.452271,1082.410522 1216.347290,1100.194092 1205.363892,1116.042847 
	C1190.356689,1137.698364 1169.983643,1152.430786 1145.653198,1162.020508 
	C1119.264282,1172.421387 1092.048706,1180.153198 1064.305542,1185.712280 
	C1047.603882,1189.058838 1030.466309,1190.669922 1013.620789,1185.932373 
	C998.724548,1181.742920 987.562988,1173.284912 983.626404,1157.381348 
	C982.303528,1152.037354 983.633057,1147.974487 987.763245,1145.865723 
	C992.071472,1143.666016 995.429810,1145.428223 998.249512,1148.748657 
	C1006.355774,1158.294312 1016.248840,1165.051392 1028.848145,1166.506226 
	C1036.244019,1167.360474 1043.912231,1167.735596 1051.260742,1166.791870 
	C1080.937988,1162.980469 1109.417358,1154.406616 1137.151855,1143.390015 
	C1162.866821,1133.175659 1181.677124,1115.281372 1194.200317,1090.680420 
	C1204.989136,1069.486084 1214.729004,1047.826294 1220.141724,1024.586426 
	C1222.263062,1015.478577 1222.582764,1005.951050 1223.670410,996.176636 
z"/>
<path fill="#96FB92" opacity="1.000000" stroke="none" 
	d="
M924.121094,579.305176 
	C924.237366,578.385986 924.295776,577.887512 924.416748,577.404785 
	C926.370178,569.610901 930.323181,565.755615 936.076050,566.021667 
	C941.960388,566.293823 946.702087,571.418091 948.008240,578.742859 
	C949.904480,589.376709 948.738525,599.732361 946.483032,610.260437 
	C939.356201,643.525696 923.429626,672.906921 907.072327,702.171082 
	C897.159180,719.906372 886.772400,737.439697 878.029236,755.747070 
	C870.480774,771.552979 865.982239,788.592712 864.098389,806.178528 
	C863.461243,812.127014 864.275024,813.787842 870.447266,813.990723 
	C875.596802,814.159973 880.802307,813.339355 885.950012,812.694031 
	C894.929382,811.568298 903.911804,809.079407 912.840698,809.297791 
	C923.424622,809.556641 930.017944,816.785217 933.939270,826.410706 
	C940.070068,841.459351 938.352478,856.651428 934.726746,871.814392 
	C932.160339,882.547485 929.041199,893.148071 926.449829,903.875671 
	C925.689148,907.024902 925.889404,910.406250 925.547180,915.070618 
	C930.177979,913.826050 934.467590,913.578796 937.734314,911.622925 
	C946.940918,906.110535 955.715332,899.878174 964.686646,893.969971 
	C967.286865,892.257690 969.791870,890.078308 972.672241,889.196228 
	C976.226929,888.107605 979.724670,889.395142 981.606079,892.931458 
	C983.733948,896.931213 983.009583,900.977112 979.605225,903.721008 
	C971.091125,910.583313 962.411438,917.260620 953.537415,923.649902 
	C945.675110,929.310669 936.982910,933.133911 927.199707,934.490417 
	C916.047180,936.036865 904.899048,930.519775 903.768433,915.932861 
	C902.390930,898.160461 908.976135,882.119568 912.484680,865.400208 
	C914.672546,854.974731 916.718323,844.643372 913.046570,834.118896 
	C911.812805,830.582275 909.941223,828.308105 905.848999,828.852844 
	C900.949829,829.505127 895.931396,829.679504 891.173035,830.884033 
	C881.183105,833.412842 871.182922,834.057312 861.127502,831.984192 
	C850.014465,829.692993 843.534363,821.507446 843.008484,810.182190 
	C842.185303,792.458313 847.081055,775.885681 852.448792,759.286621 
	C858.273438,741.274963 868.932556,725.870667 878.081238,709.642761 
	C891.881836,685.163147 906.676025,661.152527 916.246704,634.580139 
	C920.477051,622.834900 923.486755,610.622192 926.494568,598.483948 
	C927.253540,595.421021 925.920715,591.822571 925.466309,588.481445 
	C925.068604,585.557190 924.554871,582.648743 924.121094,579.305176 
z"/>
<path fill="#02C6FC" opacity="1.000000" stroke="none" 
	d="
M1528.980957,1525.592285 
	C1529.488037,1513.836914 1529.192383,1502.438721 1530.653198,1491.270264 
	C1532.942261,1473.769775 1542.460205,1459.681885 1554.591675,1447.365601 
	C1574.697510,1426.953491 1595.192749,1406.921631 1615.124634,1386.343018 
	C1625.523682,1375.606689 1635.195679,1364.152954 1644.964478,1352.823486 
	C1653.008789,1343.494263 1660.369385,1333.559326 1668.650146,1324.454102 
	C1679.773438,1312.223633 1687.370239,1298.391235 1691.049927,1282.258057 
	C1692.182617,1277.291626 1693.620850,1272.042114 1696.382202,1267.896729 
	C1699.294800,1263.524170 1703.593872,1259.790405 1707.974487,1256.776367 
	C1711.117432,1254.614136 1715.124512,1255.631348 1717.941895,1258.694458 
	C1720.777344,1261.777100 1721.385742,1265.853760 1718.908813,1268.792480 
	C1712.104248,1276.865479 1710.643677,1286.718018 1708.419312,1296.388062 
	C1705.360596,1309.685303 1698.241821,1320.827759 1689.940063,1331.362915 
	C1679.223877,1344.962158 1668.924927,1358.910034 1657.767090,1372.134888 
	C1648.662720,1382.925659 1638.714355,1393.024048 1628.869751,1403.166626 
	C1608.449951,1424.204468 1587.635986,1444.863647 1567.416992,1466.090698 
	C1557.630249,1476.365479 1552.250122,1488.937134 1551.758179,1503.428345 
	C1551.391602,1514.226318 1552.338501,1525.476929 1549.617920,1535.706177 
	C1542.955933,1560.755249 1528.826660,1580.126343 1502.247681,1587.387451 
	C1499.435181,1588.155762 1496.272705,1588.134888 1493.335938,1587.842529 
	C1488.839722,1587.394653 1485.447632,1585.026733 1484.497437,1580.329834 
	C1483.626587,1576.025269 1485.767456,1572.825195 1489.262939,1570.705811 
	C1492.227173,1568.908203 1495.541382,1567.699219 1498.622437,1566.080811 
	C1514.983521,1557.486084 1526.096558,1544.887085 1528.980957,1525.592285 
z"/>
<path fill="#02C6FC" opacity="1.000000" stroke="none" 
	d="
M1746.687256,438.856323 
	C1747.655762,440.264404 1748.271240,441.614258 1749.001465,443.258942 
	C1745.599854,452.767273 1739.775391,454.994293 1728.456543,453.673340 
	C1708.861450,451.386536 1695.939331,438.869507 1683.125122,425.865082 
	C1672.108032,414.684235 1667.745483,400.561340 1665.000854,385.631592 
	C1663.984741,380.104004 1662.593872,374.610138 1660.901123,369.250183 
	C1658.156494,360.559357 1652.236694,354.542328 1643.454712,352.233856 
	C1616.019775,345.022095 1588.447266,339.559540 1559.770874,344.463196 
	C1538.219482,348.148468 1525.122925,339.877716 1517.677979,319.333374 
	C1510.732056,300.166046 1508.978638,280.185089 1508.007202,260.051819 
	C1507.831421,256.408569 1507.493774,252.721588 1506.712402,249.168808 
	C1504.330444,238.339264 1495.813599,231.703156 1483.463623,230.999847 
	C1478.982300,230.744629 1474.473145,231.006271 1469.977173,230.969177 
	C1464.132935,230.920944 1460.435425,228.120010 1459.888062,223.409485 
	C1459.309326,218.428406 1462.409302,214.504501 1468.015137,213.122284 
	C1497.935791,205.744827 1524.724609,224.679016 1528.061890,255.335419 
	C1529.822998,271.513947 1530.978760,287.862640 1534.285156,303.743652 
	C1538.924438,326.026489 1542.951050,326.984344 1561.272095,323.866791 
	C1585.611084,319.725311 1609.299072,322.936035 1632.946655,328.286469 
	C1636.990601,329.201385 1641.035278,330.129517 1645.038574,331.203979 
	C1666.898560,337.070892 1679.300415,351.677460 1683.939941,373.430389 
	C1684.874146,377.810303 1686.013794,382.150787 1686.816040,386.553650 
	C1691.133057,410.244415 1707.608887,423.585968 1727.423462,433.846558 
	C1730.636475,435.510284 1734.922607,434.988007 1738.618286,435.871521 
	C1741.271729,436.505951 1743.767944,437.798920 1746.687256,438.856323 
z"/>
<path fill="#059D07" opacity="1.000000" stroke="none" 
	d="
M1257.898438,1473.075195 
	C1249.477051,1449.078369 1241.267700,1425.411865 1232.770386,1401.848999 
	C1231.685181,1398.839966 1229.709961,1395.220825 1227.108643,1393.838867 
	C1208.372803,1383.884155 1195.657349,1369.007446 1187.793213,1349.386353 
	C1180.354004,1330.825317 1177.422241,1311.539795 1175.698975,1291.778320 
	C1174.161621,1274.145264 1175.639282,1257.027954 1180.815308,1240.225220 
	C1184.606323,1227.918823 1193.427734,1220.626953 1205.630005,1217.297607 
	C1207.659912,1216.743896 1210.001099,1216.607544 1212.052368,1217.014404 
	C1215.712646,1217.740601 1219.244873,1219.180908 1219.950684,1223.529663 
	C1220.658569,1227.891235 1218.612793,1230.851807 1214.707397,1232.717651 
	C1211.429077,1234.283936 1208.009888,1235.667236 1204.995728,1237.652222 
	C1198.465210,1241.952759 1197.321655,1249.304321 1196.388184,1256.057495 
	C1191.651245,1290.328613 1195.679810,1323.482666 1211.054321,1354.759033 
	C1215.159790,1363.111084 1220.776611,1370.650391 1228.711670,1376.008911 
	C1230.612061,1377.292236 1232.617188,1378.726807 1234.779663,1379.262207 
	C1243.513550,1381.424683 1248.993408,1387.169678 1252.006592,1395.159790 
	C1258.613281,1412.679321 1264.737183,1430.380127 1271.238403,1447.940186 
	C1278.379883,1467.229614 1284.478882,1487.046509 1296.314697,1504.176270 
	C1299.100830,1508.208618 1303.488037,1511.388916 1307.684082,1514.125244 
	C1312.411621,1517.208618 1314.781128,1520.133545 1313.603638,1523.771973 
	C1312.296143,1527.812012 1308.615723,1529.968140 1303.212524,1529.226196 
	C1293.697632,1527.919800 1286.273071,1522.956055 1280.277466,1515.560425 
	C1270.075195,1502.975952 1264.298096,1488.080933 1257.898438,1473.075195 
z"/>
<path fill="#FA5E99" opacity="1.000000" stroke="none" 
	d="
M638.960449,623.077148 
	C664.314087,617.727051 685.567810,623.742432 702.239441,643.628906 
	C703.617676,645.272888 704.971313,647.064331 705.800354,649.015076 
	C707.457153,652.913818 706.854187,656.642822 703.471619,659.417725 
	C700.095215,662.187561 696.379517,661.960205 692.781921,659.740662 
	C691.664551,659.051270 690.660645,658.110840 689.766296,657.137085 
	C674.560547,640.581299 656.240051,637.622925 635.975708,645.566101 
	C612.546265,654.749878 594.087830,670.204529 581.991333,692.388062 
	C578.758911,698.316040 576.950134,705.476562 576.307007,712.244080 
	C575.514038,720.588928 581.212524,724.949219 589.428223,723.458374 
	C599.255005,721.675171 606.375854,716.056396 610.733521,707.061523 
	C611.272461,705.949219 611.260315,704.569885 611.681702,702.394348 
	C608.007446,702.671936 604.943481,702.840149 601.893372,703.146851 
	C595.303223,703.809448 590.826782,701.258240 589.845459,696.194397 
	C588.859558,691.106812 591.956055,686.495056 598.243225,685.136169 
	C603.215515,684.061462 608.515442,683.165100 613.495972,683.727966 
	C626.142761,685.157349 633.180725,695.611084 630.742676,708.161194 
	C626.776550,728.577637 601.963989,745.891785 581.434082,742.568542 
	C567.097290,740.247803 557.229858,729.676636 555.878601,715.214172 
	C554.576050,701.273315 559.023315,688.753174 566.343872,677.368103 
	C583.655640,650.444885 607.343628,631.720764 638.960449,623.077148 
z"/>
<path fill="#FAFAFA" opacity="1.000000" stroke="none" 
	d="
M818.140564,1918.188477 
	C855.973938,1892.125244 893.401367,1866.090942 931.185364,1840.584595 
	C940.370789,1834.383789 950.712830,1829.890015 960.563110,1824.687134 
	C962.161377,1823.842773 963.925537,1823.203613 965.688660,1822.800415 
	C970.568787,1821.684692 974.755432,1823.625366 976.570618,1827.650635 
	C978.390991,1831.687256 977.079712,1836.100464 973.087158,1839.084839 
	C972.027954,1839.876709 970.864380,1840.569336 969.664917,1841.127441 
	C936.255493,1856.668579 906.444458,1877.913086 876.929626,1899.623169 
	C868.481873,1905.837280 860.271423,1912.387329 851.663147,1918.367310 
	C826.908691,1935.563354 804.969543,1955.869873 784.732544,1978.105469 
	C783.724304,1979.213257 782.721802,1980.337402 781.615662,1981.342896 
	C777.522461,1985.063721 772.532043,1985.493530 768.954224,1982.494141 
	C765.343323,1979.466919 764.844421,1974.627441 767.826538,1969.834961 
	C769.140991,1967.722412 770.534607,1965.574219 772.277527,1963.826538 
	C787.423889,1948.638550 802.657898,1933.537964 818.140564,1918.188477 
z"/>
<path fill="#FA5E99" opacity="1.000000" stroke="none" 
	d="
M1477.143677,1824.438721 
	C1482.699219,1823.028809 1487.036987,1824.841187 1491.094116,1828.823975 
	C1501.438721,1838.978516 1511.871948,1849.057983 1522.603638,1858.799683 
	C1544.429688,1878.613037 1557.619141,1903.185791 1563.927124,1931.755005 
	C1568.396851,1951.999268 1573.065552,1972.199707 1577.608643,1992.427856 
	C1579.100464,1999.070801 1576.855469,2003.913940 1571.692749,2005.486938 
	C1567.183228,2006.860596 1562.082397,2004.365112 1560.251831,1998.269287 
	C1555.158081,1981.307617 1550.215088,1964.267578 1546.165039,1947.034668 
	C1541.831787,1928.596069 1539.156982,1909.451050 1527.154785,1894.115234 
	C1518.477539,1883.027954 1508.127808,1873.225464 1498.285400,1863.081421 
	C1490.288574,1854.839600 1481.937256,1846.941406 1473.332275,1838.359863 
	C1470.790894,1832.249756 1472.297119,1827.817627 1477.143677,1824.438721 
z"/>
<path fill="#02C6FC" opacity="1.000000" stroke="none" 
	d="
M1477.097900,1823.999512 
	C1472.297119,1827.817627 1470.790894,1832.249756 1473.025635,1838.187744 
	C1471.171631,1842.189209 1469.393433,1845.943604 1467.213501,1849.448242 
	C1463.789062,1854.953491 1458.558105,1856.673462 1454.146118,1854.063965 
	C1449.748779,1851.463257 1448.914062,1847.010864 1451.769653,1840.913574 
	C1456.351074,1831.131592 1458.016724,1820.706421 1459.057617,1810.061157 
	C1461.233154,1787.812500 1456.557129,1766.693115 1448.462891,1746.251343 
	C1440.831543,1726.978760 1432.542114,1707.966553 1424.532227,1688.843872 
	C1424.147827,1687.926147 1423.592407,1687.076538 1423.244873,1686.147339 
	C1421.452148,1681.354370 1421.078125,1676.653809 1424.959351,1672.646729 
	C1428.635620,1668.850952 1433.005127,1669.345215 1437.890869,1671.054199 
	C1441.753296,1673.760864 1444.323486,1676.801880 1444.608765,1681.620239 
	C1444.742798,1683.887207 1446.575195,1686.053833 1447.881836,1688.508179 
	C1449.524536,1692.072266 1450.764771,1695.471680 1452.348145,1698.703247 
	C1463.697998,1721.867920 1472.404907,1745.994507 1478.338379,1771.079346 
	C1481.680664,1785.209229 1480.554443,1799.496826 1478.579102,1813.722656 
	C1478.122681,1817.009277 1477.563843,1820.281494 1477.097900,1823.999512 
z"/>
<path fill="#FAFAFA" opacity="1.000000" stroke="none" 
	d="
M1259.558594,1744.962646 
	C1274.668823,1744.699097 1289.315063,1744.449707 1303.961304,1744.206177 
	C1304.627197,1744.195068 1305.295044,1744.213745 1305.959717,1744.255249 
	C1313.401367,1744.718384 1317.699341,1748.331787 1317.544434,1753.985596 
	C1317.390869,1759.598267 1313.002563,1763.025635 1305.484741,1763.151978 
	C1273.485596,1763.690308 1241.519653,1765.177979 1209.901855,1770.237061 
	C1191.687012,1773.151367 1173.744263,1777.761841 1155.671387,1781.572510 
	C1152.755615,1782.187378 1149.802734,1783.006470 1146.861694,1783.028687 
	C1142.804565,1783.059326 1139.930908,1780.794312 1138.766602,1776.824829 
	C1137.591431,1772.818359 1139.044678,1769.541138 1142.328491,1767.233154 
	C1143.922607,1766.112915 1145.879272,1765.413696 1147.764404,1764.816406 
	C1184.004150,1753.333374 1221.199829,1747.187744 1259.558594,1744.962646 
z"/>
<path fill="#FA5E99" opacity="1.000000" stroke="none" 
	d="
M265.081665,1043.763184 
	C263.785645,1039.871460 262.862061,1036.046509 261.848114,1031.820068 
	C264.587463,1027.817871 266.961700,1023.128479 272.532166,1024.103394 
	C275.419006,1024.608643 278.242584,1026.287964 280.744141,1027.961060 
	C283.414337,1029.746948 285.502869,1032.390503 288.139557,1034.240356 
	C296.580048,1040.162231 305.133667,1045.924316 313.686890,1051.683716 
	C323.619690,1058.372192 333.231171,1065.662231 343.691559,1071.397095 
	C350.202637,1074.967041 358.012390,1076.191772 365.275391,1078.347412 
	C366.845947,1078.813477 368.592957,1078.646851 370.220703,1078.965576 
	C375.308868,1079.962158 378.467041,1083.700195 378.214325,1088.289062 
	C377.971405,1092.699463 374.670319,1096.620117 369.673401,1096.378418 
	C361.941315,1096.004395 353.653503,1095.950195 346.703674,1093.085815 
	C335.113556,1088.308960 324.077393,1081.929321 313.384003,1075.295776 
	C297.148590,1065.224365 281.406006,1054.358521 265.081665,1043.763184 
z"/>
</svg>